<svg width="1024" height="1024" viewBox="0 0 1024 1024" fill="none" xmlns="http://www.w3.org/2000/svg">
<rect width="1024" height="1024" fill="white"/>
<path d="M339.767 225.419L323.967 249.719C322.397 252.159 323.097 255.419 325.527 256.989C325.647 257.069 325.777 257.139 325.917 257.219L326.227 257.379C327.467 258.159 328.947 258.419 330.377 258.089C331.807 257.769 333.027 256.899 333.817 255.649L348.457 232.309C348.547 232.169 348.737 232.129 348.887 232.219C358.587 238.839 369.287 243.169 380.677 245.069C403.877 248.949 425.467 244.189 444.877 230.929L460.327 256.119C461.107 257.389 462.337 258.289 463.787 258.639C464.227 258.749 464.667 258.799 465.107 258.799C466.127 258.799 467.127 258.519 468.017 257.969L468.327 257.759C471.017 255.889 471.757 252.289 469.997 249.509L453.827 224.029C463.467 215.469 470.807 205.149 475.657 193.349C484.537 171.759 483.997 148.019 474.147 126.529C464.247 104.939 445.847 88.329 423.647 80.949C395.717 71.669 365.497 77.1993 342.817 95.7493C319.907 114.489 308.377 143.349 311.977 172.949C314.407 192.869 324.017 211.009 339.777 225.409L339.767 225.419ZM405.447 164.569C403.427 169.619 397.787 172.139 392.877 170.169C387.967 168.209 385.617 162.499 387.637 157.439C389.187 153.549 392.887 151.169 396.747 151.169C397.907 151.169 399.077 151.379 400.207 151.839C405.117 153.799 407.467 159.509 405.447 164.569ZM426.657 214.599C423.037 211.969 418.127 211.089 413.527 212.249C409.137 213.349 405.567 216.169 403.717 219.979C401.467 224.619 401.577 229.629 404.027 234.869C394.307 235.619 384.907 234.799 376.047 232.419C346.447 224.489 324.237 197.059 322.997 167.049H375.967C376.177 167.049 376.367 167.179 376.437 167.379C380.157 177.819 387.937 183.009 398.337 181.989C403.217 181.509 407.417 179.449 410.827 175.869L438.907 221.199C438.957 221.279 438.937 221.379 438.847 221.429L433.247 224.899C432.467 220.679 430.257 217.219 426.657 214.609V214.599ZM396.707 88.1189C411.737 87.9489 426.187 92.4093 438.567 100.999C450.797 109.479 460.137 121.379 465.577 135.409C468.197 142.169 469.637 149.119 469.847 156.059H416.647C416.597 156.059 416.547 156.029 416.537 155.979C415.687 153.569 415.037 151.909 414.557 150.919C411.207 144.019 404.477 139.899 396.537 139.899H396.507C388.557 139.899 381.807 144.029 378.467 150.949C377.987 151.949 377.337 153.599 376.487 156.009C376.467 156.059 376.427 156.099 376.377 156.099L323.177 156.149C323.377 149.199 324.807 142.259 327.427 135.499C332.857 121.469 342.187 109.559 354.407 101.069C366.577 92.6091 380.787 88.1492 395.537 88.1492C395.777 88.1492 396.017 88.1492 396.267 88.1492H396.727L396.707 88.1189ZM470.137 166.999C468.717 185.609 461.237 201.509 447.917 214.269L418.637 166.999H470.137ZM417.187 223.039C417.427 223.009 417.677 222.989 417.917 222.989C420.297 222.989 422.347 224.579 422.637 226.779C422.967 229.209 421.057 231.469 418.377 231.839C415.697 232.209 413.257 230.519 412.927 228.099C412.597 225.669 414.507 223.409 417.187 223.039Z" fill="black"/>
<path d="M685.776 78.4995C683.906 77.4695 680.326 76.9795 674.856 76.9995C617.176 77.0695 580.026 77.0592 564.456 76.9692C564.426 76.9692 564.396 76.9692 564.356 76.9692C555.996 76.9692 549.406 83.6893 549.356 92.2993C549.256 107.149 549.236 117.74 549.286 123.77C549.316 126.9 551.886 129.469 555.026 129.509H555.236C556.736 129.529 558.206 128.959 559.296 127.899C560.386 126.839 561.006 125.409 561.026 123.879V123.75C560.956 113.41 560.936 102.82 560.946 92.2896C560.946 89.3996 562.256 88.1191 565.186 88.1191C620.766 88.0891 656.936 88.0593 673.696 88.0493H674.486C677.936 88.0493 680.416 88.0393 681.696 89.3193C682.636 90.2593 683.066 91.9993 683.056 94.7993C683.006 108.619 682.996 158.59 683.036 243.31C683.036 246.03 681.786 247.259 678.956 247.279C674.446 247.319 673.746 246.579 671.096 243.109C668.316 239.479 664.186 237.239 659.776 236.969C655.566 236.709 651.596 238.229 648.596 241.259C647.846 242.029 647.186 242.839 646.546 243.629C645.196 245.309 644.026 246.749 642.446 247.139C640.696 247.579 639.086 247.439 637.516 246.729C637.266 246.619 637.036 246.439 636.856 246.219C634.636 243.559 633.216 241.94 632.506 241.25C626.776 235.61 617.366 235.419 611.516 240.819C610.866 241.419 610.216 242.279 609.516 243.189C608.256 244.849 606.816 246.739 605.336 247.099C603.276 247.609 601.396 247.459 599.586 246.629C599.356 246.519 599.146 246.369 598.966 246.169C598.466 245.599 597.996 245.06 597.546 244.54C595.386 242.05 593.686 240.079 591.046 238.699C585.606 235.859 580.146 236.459 574.816 240.469C573.936 241.129 573.146 242.199 572.316 243.329C571.166 244.899 569.856 246.679 568.356 247.139C566.556 247.689 564.016 247.739 562.416 246.629C561.486 245.989 560.966 244.999 560.866 243.709V143.939C560.866 142.479 560.296 141.099 559.266 140.069C558.236 139.039 556.856 138.469 555.396 138.469H555.036C551.866 138.569 549.396 141.12 549.406 144.29C549.476 176.24 549.486 208.239 549.426 239.379C549.416 244.769 549.926 248.529 550.996 250.879C552.716 254.689 555.776 257.209 560.086 258.359C564.556 259.539 568.826 259.509 572.796 258.259C577.236 256.859 578.996 254.279 581.666 250.379L581.746 250.27C581.876 250.08 582.026 249.92 582.206 249.79C585.176 247.65 586.646 249.26 588.976 252.31C589.636 253.17 590.326 254.069 591.066 254.759C594.286 257.769 598.236 259.229 602.816 259.169C610.026 259.039 614.006 256.979 618.026 251.299C619.186 249.659 619.886 249.259 620.206 249.179C623.436 248.279 624.606 249.739 626.536 252.139C626.756 252.419 626.986 252.699 627.226 252.989C631.106 257.689 635.976 259.639 642.566 259.129C647.976 258.719 651.326 256.819 654.486 252.369C656.106 250.109 656.576 249.729 656.596 249.709C660.546 248.089 662.166 249.67 663.046 251C666.676 256.49 671.806 259.259 678.346 259.259C679.036 259.259 679.736 259.229 680.446 259.169C686.206 258.669 690.286 256.219 692.546 251.889C693.646 249.779 694.176 245.639 694.176 239.239V191.329C694.146 139.779 694.136 108.659 694.196 95.0693C694.246 87.0493 691.496 81.6393 685.786 78.5293L685.776 78.4995Z" fill="black"/>
<path d="M83.9766 101.339C84.0066 148.249 84.0066 195.149 83.9966 242.049C83.9966 244.809 84.3165 247.199 84.9365 249.149C85.7665 251.729 87.0764 253.509 88.8364 254.479C91.1264 257.079 93.7768 258.399 96.6968 258.399C179.477 258.399 226.067 258.449 235.187 258.579C235.277 258.579 235.367 258.579 235.457 258.579C240.227 258.579 244.157 256.749 247.137 253.119C249.437 250.319 250.597 246.77 250.597 242.56C250.537 214.71 250.527 166.459 250.557 99.1391C250.557 98.4991 250.557 97.8193 250.577 97.1093C250.617 93.6493 250.667 89.7195 249.737 87.4995C247.987 83.3095 245.187 80.3294 241.437 78.6294C239.557 77.7794 235.707 77.3391 229.537 77.3691C180.697 77.4191 136.517 77.4294 98.2065 77.3794C97.7165 77.3794 97.2266 77.4293 96.7466 77.5293C84.0666 80.4093 84.0166 90.5291 83.9766 100.329V101.31H84.9668H83.9668L83.9766 101.339ZM199.167 247.079L173.227 247.129L173.187 224.089L199.126 224.04L199.167 247.079ZM199.037 176.979L173.187 176.879L173.287 150.069L199.086 150.109C199.086 150.109 199.137 150.129 199.137 150.159L199.037 176.969V176.979ZM199.137 188.219L199.097 213.02L173.177 212.969L173.217 188.169L199.137 188.219ZM162.177 224.06V247.119H138.256V224.06H162.177ZM162.037 176.979L138.237 176.879L138.347 150.079L162.086 150.119C162.086 150.119 162.146 150.149 162.146 150.179L162.037 176.979ZM138.287 188.179L162.146 188.219C162.146 188.219 162.177 188.239 162.177 188.249L162.106 213.04L138.217 212.969L138.287 188.179ZM127.157 224.069V247.089C122.657 247.109 113.327 247.119 99.1665 247.129C96.4965 247.129 95.3466 246.139 95.3066 243.799C95.1766 236.159 95.1568 229.529 95.2368 224.079H127.157V224.069ZM239.267 188.179V212.979H210.307V188.179H239.267ZM210.276 176.969V150.089H239.256V176.969H210.276ZM239.137 243.969C239.077 246.139 238.037 247.079 235.667 247.099C230.337 247.149 221.806 247.149 210.296 247.119V224.089H239.256C239.366 230.869 239.327 237.549 239.137 243.969ZM95.1968 138.999V93.5395C95.1968 90.9195 97.4468 88.7793 100.217 88.7793H234.316C237.086 88.7793 239.336 90.9195 239.336 93.5395V138.999H95.1968ZM95.2368 188.279C95.2368 188.279 95.2764 188.199 95.3164 188.199H127.057C127.057 188.199 127.137 188.239 127.137 188.279V212.919C127.137 212.919 127.097 212.999 127.057 212.999H95.3164C95.3164 212.999 95.2368 212.959 95.2368 212.919V188.279ZM95.2563 150.129L127.037 150.069C127.037 150.069 127.077 150.089 127.077 150.109V176.909L95.2666 176.929V150.129H95.2563Z" fill="black"/>
<path d="M941.417 155.88C935.317 108.31 892.077 74.5097 844.997 80.5397C797.927 86.5697 764.597 130.18 770.687 177.75C773.637 200.79 785.287 221.319 803.497 235.549C818.777 247.489 837.127 253.79 856.097 253.79C859.747 253.79 863.417 253.559 867.097 253.089C914.167 247.059 947.507 203.45 941.407 155.88H941.417ZM855.867 91.1495C893.707 91.1495 926.326 120.209 930.346 159.089C934.636 200.569 904.767 237.77 863.767 242C843.897 244.05 824.427 238.16 808.917 225.4C793.407 212.64 783.717 194.549 781.637 174.449C779.557 154.349 785.347 134.66 797.917 119C810.497 103.34 828.357 93.5897 848.217 91.5397C850.787 91.2697 853.337 91.1393 855.867 91.1393V91.1495Z" fill="black"/>
<path d="M669.866 131.259C670.166 130.939 670.386 130.559 670.516 130.169C671.266 127.949 671.246 126.099 670.456 124.659C669.686 123.279 668.236 122.319 666.126 121.819C664.076 121.339 662.256 120.969 660.696 120.739C660.296 120.679 659.966 120.429 659.806 120.069C659.636 119.689 659.456 119.269 659.266 118.819C657.756 115.259 655.486 109.869 651.406 109.869H651.386C647.306 109.889 645.086 115.309 643.616 118.889C643.426 119.349 643.256 119.779 643.086 120.159C642.926 120.519 642.606 120.779 642.206 120.839C640.656 121.089 638.836 121.469 636.796 121.979C634.696 122.509 633.246 123.479 632.496 124.869C631.716 126.309 631.717 128.159 632.487 130.349C632.617 130.759 632.856 131.139 633.146 131.449L637.106 135.679C637.796 136.419 638.146 137.429 638.046 138.439C637.946 139.559 637.716 141.779 637.356 145.119C637.126 147.339 637.926 149.279 639.546 150.429C640.466 151.079 641.557 151.409 642.717 151.409C643.687 151.409 644.696 151.179 645.676 150.709C645.936 150.589 646.346 150.339 646.916 149.979C648.036 149.289 650.666 147.679 651.596 147.669C652.556 147.669 655.226 149.269 656.376 149.959C656.916 150.289 657.306 150.519 657.556 150.639C659.716 151.639 662.006 151.51 663.676 150.29C665.286 149.12 666.066 147.179 665.806 144.949C665.416 141.619 665.156 139.4 665.046 138.29C664.946 137.28 665.276 136.269 665.956 135.529L669.856 131.259H669.866ZM649.226 137.129C649.516 134.749 648.966 132.759 647.596 131.209C649.326 130.839 650.636 129.789 651.476 128.099C652.246 129.629 653.506 130.649 655.186 131.099C654.316 132.719 654.066 134.579 654.446 136.659C652.916 136.089 651.606 135.939 649.926 136.779C649.646 136.919 649.406 137.039 649.226 137.129Z" fill="black"/>
<path d="M614.447 182.459C614.507 182.459 614.567 182.459 614.617 182.459C623.307 182.359 630.457 174.729 630.557 165.449C630.587 163.129 630.576 159.639 630.526 155.069C630.476 150.529 630.407 147.039 630.327 144.709C629.997 135.499 622.757 128.069 614.157 128.069C614.097 128.069 614.037 128.069 613.987 128.069C605.307 128.169 598.156 135.799 598.046 145.079C598.016 147.399 598.036 150.889 598.086 155.449C598.136 159.999 598.207 163.48 598.287 165.81C598.607 175.02 605.837 182.449 614.447 182.449V182.459ZM614.546 140.139H614.566C617.216 140.139 619.366 142.289 619.376 144.929L619.447 165.689C619.447 166.969 618.956 168.179 618.046 169.099C617.136 170.019 615.936 170.52 614.646 170.52H614.186C612.866 170.55 611.696 170.029 610.776 169.119C609.866 168.209 609.356 167.009 609.356 165.719L609.287 144.959C609.287 143.669 609.776 142.469 610.686 141.549C611.596 140.629 612.796 140.129 614.086 140.129H614.546V140.139Z" fill="black"/>
<path d="M587.836 129.929C586.186 128.819 584.187 128.589 582.467 129.319C581.007 129.929 579.746 130.799 578.726 131.899C574.536 136.399 571.737 139.4 570.407 140.79C567.547 143.81 567.796 146.089 568.516 147.469C569.926 150.199 571.876 150.889 573.266 150.989C575.216 151.119 577.316 150.159 578.996 148.419L578.686 177.54C578.666 178.95 579.207 180.279 580.197 181.279C581.187 182.289 582.507 182.849 583.907 182.859C583.927 182.859 583.956 182.859 583.976 182.859C584.076 182.859 584.176 182.859 584.276 182.859L584.576 182.839C587.756 182.769 590.336 180.129 590.326 176.949C590.276 160.579 590.346 146.409 590.526 134.829C590.556 132.949 589.526 131.079 587.836 129.939V129.929Z" fill="black"/>
<path d="M658.007 196.079H585.947C583.053 196.079 580.707 198.425 580.707 201.319V201.859C580.707 204.753 583.053 207.099 585.947 207.099H658.007C660.901 207.099 663.247 204.753 663.247 201.859V201.319C663.247 198.425 660.901 196.079 658.007 196.079Z" fill="black"/>
<path d="M467.557 355.049C469.057 355.049 470.367 354.089 470.827 352.659C471.117 351.779 471.267 350.519 471.297 348.819C471.457 340.469 471.367 335.009 471.047 332.119C469.857 321.349 462.987 313.159 453.527 311.259C453.217 311.199 452.477 311.049 440.527 311.049C415.697 311.059 388.757 311.049 359.707 311.029C351.377 311.029 346.537 311.219 344.967 311.629C334.127 314.489 326.417 324.629 326.227 336.279C326.087 344.109 326.067 352.039 326.177 359.849L326.107 440.449L322.047 440.409C320.157 440.389 319.207 440.379 319.197 440.379C316.047 440.349 314.237 442.059 314.157 445.229C313.977 452.029 313.967 458.7 314.137 465.06C314.447 477.09 323.017 488.439 334.987 492.679C337.687 493.629 342.677 494.109 350.237 494.129C356.597 494.149 362.997 494.159 369.387 494.159C380.447 494.159 391.517 494.129 402.477 494.079C407.837 494.069 413.307 493.999 418.717 493.889C424.687 493.769 429.657 491.629 433.497 487.529C440.677 479.859 440.677 471.589 440.677 460.149V459.849C440.657 425.619 440.647 390.69 440.647 355.04H467.547L467.557 355.049ZM397.107 451.609C397.117 453.389 397.127 458.55 397.147 467.29C397.147 471.77 397.867 477.969 401.067 482.879C380.667 483.039 361.977 483.059 345.497 482.949C338.497 482.899 333.137 480.169 329.087 474.609C324.687 468.569 324.927 461.209 325.157 454.099C325.187 453.269 325.207 452.429 325.227 451.609H397.107ZM460.317 336.719V344.009H440.577V336.719C440.577 328.689 444.947 322.149 450.327 322.149H450.567C455.947 322.149 460.317 328.689 460.317 336.719ZM337.157 344.29V343.329C337.137 337.219 337.117 331.939 340.677 327.339C343.347 323.899 346.787 322.219 351.197 322.219C398.027 322.209 425.587 322.219 433.187 322.259C430.017 328.049 429.417 332.779 429.417 339.719C429.457 405.019 429.447 447.52 429.397 466.06C429.367 474.5 426.857 479.899 421.927 482.099C418.837 483.479 415.987 482.919 413.217 480.389C410.217 477.639 408.577 473.719 408.327 468.719C408.217 466.309 408.177 458.35 408.217 445.06C408.217 443.66 407.827 442.55 407.047 441.77C406.227 440.94 404.997 440.52 403.407 440.52C381.877 440.55 359.597 440.55 337.167 440.52C337.207 414.85 337.187 382.489 337.127 344.299L337.157 344.29Z" fill="black"/>
<path d="M709.556 455.859C708.866 453.679 707.416 450.85 705.116 447.23C704.816 446.75 704.606 446.23 704.506 445.67C704.356 444.92 704.177 442.809 704.177 437.049C704.147 398.669 704.176 364.199 704.256 334.579C704.276 327.749 704.017 323.57 703.447 321.81C701.757 316.54 696.057 311.089 689.427 311.079C679.737 311.079 636.356 311.07 559.286 311.06C554.686 311.04 551.566 311.51 549.616 312.46C543.196 315.57 540.217 320.999 540.217 329.549C540.217 395.389 540.216 431.139 540.226 435.799C540.226 439.449 540.147 442.61 539.967 445.19C539.917 445.9 539.686 446.59 539.276 447.17C536.176 451.66 534.096 455.49 533.276 460.71C531.596 471.56 534.656 480.67 542.366 487.81C552.466 497.15 569.456 497.829 580.226 489.319C591.486 480.429 594.407 465.53 587.637 452.02H596.186C591.626 460.44 591.376 470.53 595.576 479.23C599.766 487.9 607.616 493.62 617.126 494.92C629.136 496.56 639.676 492.27 646.046 483.15C652.606 473.76 653.097 461.65 647.387 452H655.826C655.666 452.36 655.486 452.739 655.296 453.139C654.516 454.789 653.627 456.669 653.197 458.599C651.327 466.869 652.396 474.469 656.366 481.199C660.526 488.259 667.706 493.2 676.046 494.77C677.976 495.13 679.906 495.31 681.826 495.31C688.416 495.31 694.766 493.19 699.836 489.21C709.836 481.34 713.566 468.569 709.556 455.859ZM681.677 447.819C681.827 447.819 681.966 447.819 682.116 447.819C687.066 447.929 691.686 449.93 695.106 453.44C698.526 456.95 700.347 461.549 700.237 466.389C700.127 471.239 698.096 475.749 694.526 479.099C690.946 482.449 686.256 484.23 681.296 484.13C676.346 484.02 671.726 482.019 668.306 478.509C664.886 474.999 663.067 470.4 663.177 465.56C663.397 455.69 671.666 447.819 681.686 447.819H681.677ZM652.016 384.929H692.996C693.076 384.929 693.137 384.989 693.137 385.069V438.98C683.317 435.29 673.966 436.029 665.346 441.199C664.926 441.449 664.476 441.609 663.996 441.679C660.396 442.179 656.366 442.24 652.026 441.88V384.929H652.016ZM551.536 328.339C551.536 324.969 554.346 322.23 557.806 322.23H686.887C690.347 322.23 693.157 324.969 693.157 328.339L693.206 373.989H551.536V328.339ZM578.066 441.48C573.036 438.29 567.386 436.67 561.806 436.67C558.306 436.67 554.836 437.309 551.566 438.609V384.949H593.066V441.969H579.746C579.146 441.969 578.566 441.799 578.066 441.489V441.48ZM578.936 473.65C576.946 478.07 573.326 481.45 568.746 483.15C564.156 484.85 559.157 484.679 554.657 482.659C550.157 480.639 546.697 477.009 544.927 472.449C543.157 467.889 543.276 462.95 545.266 458.52C547.256 454.1 550.876 450.72 555.456 449.02C557.546 448.24 559.716 447.859 561.896 447.859C564.496 447.859 567.106 448.41 569.556 449.52C578.836 453.69 583.057 464.519 578.947 473.659L578.936 473.65ZM638.677 441.659C630.527 436.579 621.816 435.36 612.786 438.04C610.536 438.71 608.437 439.839 606.407 440.929C605.487 441.429 604.607 441.899 603.737 442.319V384.949H641.387V441.969C640.257 442.199 639.376 442.099 638.686 441.659H638.677ZM604.246 460.549C607.246 450.979 617.606 445.689 627.346 448.739C632.066 450.219 635.936 453.419 638.246 457.739C640.556 462.059 641.026 466.989 639.576 471.619C638.126 476.249 634.926 480.029 630.566 482.259C626.206 484.489 621.196 484.909 616.476 483.429C606.736 480.379 601.256 470.109 604.246 460.549Z" fill="black"/>
<path d="M107.847 458.939C108.027 459.669 108.237 460.389 108.477 461.079C109.557 465.469 111.917 468.889 115.467 471.239C115.647 471.359 115.756 471.549 115.756 471.759C115.806 472.839 115.806 473.969 115.816 475.059C115.816 477.649 115.817 480.089 116.417 482.139C117.867 487.119 120.756 490.669 125.006 492.699C126.996 493.639 131.336 494.099 138.276 494.109C152.476 494.119 166.667 494.129 180.867 494.129C190.217 494.129 199.557 494.129 208.907 494.129C211.997 494.129 215.087 494.129 218.177 494.129C221.267 494.129 224.357 494.129 227.447 494.129C232.267 494.129 236.627 492.419 239.707 489.309C242.637 486.349 244.227 482.269 244.187 477.799C244.127 471.529 244.127 432.589 244.177 362.059C244.187 353.589 237.257 346.429 228.727 346.089C226.397 345.999 222.627 345.949 217.487 345.929C217.077 344.029 215.367 336.849 212.397 324.589C211.137 319.389 208.577 315.489 204.997 313.319C201.817 311.389 198.046 310.939 193.796 311.989C162.756 319.709 130.017 327.769 96.4766 335.939C90.3466 337.429 86.0767 340.119 83.7867 343.939C81.7267 347.369 81.3265 351.639 82.6065 356.629C88.5965 380.029 97.0865 414.449 107.836 458.949L107.847 458.939ZM116.037 445.149C108.747 415.569 101.376 385.819 94.0865 356.629L93.9766 356.189C93.2866 353.419 92.6865 351.019 93.6265 349.469C94.2265 348.479 95.4766 347.759 97.4566 347.269C139.397 336.919 172.617 328.759 196.207 323.009C196.797 322.869 197.327 322.789 197.807 322.789C199.577 322.789 200.647 323.769 201.217 325.839C202.907 331.999 204.526 338.779 206.046 345.919C203.376 346.059 201.077 346.119 199.207 346.099C187.377 345.999 165.347 345.999 133.717 346.099C125.517 346.119 119.837 349.869 116.857 357.249C115.837 359.779 115.837 363.609 115.847 366.989V368.129C115.847 372.309 115.837 376.999 115.827 382.129C115.787 399.549 115.726 420.989 116.046 445.129L116.037 445.149ZM127.187 362.479C127.187 361.019 127.756 359.649 128.796 358.619C129.826 357.589 131.197 357.019 132.657 357.019L227.697 357.189C229.157 357.189 230.526 357.759 231.566 358.799C232.596 359.839 233.167 361.209 233.167 362.669L232.967 477.609C232.967 479.069 232.397 480.439 231.357 481.479C230.327 482.509 228.957 483.079 227.497 483.079L132.457 482.909C129.437 482.909 126.987 480.449 126.997 477.429L127.197 362.489L127.187 362.479Z" fill="black"/>
<path d="M856.176 341.389H856.216C859.376 341.389 861.966 338.829 861.986 335.659L862.086 321.139C862.106 317.959 859.536 315.349 856.356 315.329H855.916C852.736 315.279 850.126 317.87 850.106 321.06L850.006 335.579C849.986 338.759 852.556 341.369 855.736 341.389H856.176Z" fill="black"/>
<path d="M807.836 336.599C805.566 334.289 801.846 334.25 799.536 336.51L799.336 336.71C798.216 337.81 797.586 339.27 797.576 340.84C797.566 342.41 798.156 343.89 799.256 345.01L813.416 359.469C814.566 360.639 816.086 361.23 817.606 361.23C819.126 361.23 820.576 360.67 821.716 359.56L821.916 359.36C823.036 358.26 823.666 356.8 823.676 355.23C823.696 353.66 823.096 352.18 821.996 351.06L807.836 336.599Z" fill="black"/>
<path d="M894.307 361.199C894.307 361.199 894.387 361.199 894.427 361.199C895.937 361.199 897.357 360.629 898.447 359.579L913.837 344.819C914.957 343.749 915.587 342.299 915.627 340.749C915.657 339.199 915.086 337.729 914.016 336.609L913.827 336.409C911.607 334.099 907.927 334.019 905.617 336.239L890.227 350.999C889.107 352.069 888.477 353.519 888.437 355.069C888.407 356.619 888.977 358.089 890.047 359.209L890.237 359.409C891.307 360.529 892.757 361.159 894.307 361.199Z" fill="black"/>
<path d="M847.437 356.129C844.477 360.979 841.207 366.579 837.707 372.749C837.617 372.909 837.487 373.059 837.337 373.169C836.507 373.799 835.647 374.179 834.767 374.319C827.657 375.429 821.327 376.679 815.957 378.039C812.237 378.979 808.297 382.629 808.427 386.899C808.547 391.079 811.297 394.489 814.107 397.639C818.057 402.059 821.707 406.169 825.067 409.969C825.407 410.349 825.537 410.879 825.427 411.379C825.337 411.779 824.937 414.039 822.507 429.069C821.847 433.159 823.147 436.669 826.367 439.489C828.737 441.569 831.247 442.609 833.887 442.609C835.537 442.609 837.237 442.199 838.967 441.379C844.087 438.949 849.317 436.389 854.507 433.769C855.237 433.399 856.077 433.379 856.817 433.719L871.967 440.569C874.717 441.819 883.107 445.629 887.437 437.329C888.567 435.169 889.027 433.259 888.817 431.639C887.277 419.699 886.467 413.559 886.367 412.899C886.167 411.599 886.427 409.759 887.167 409.039C891.487 404.869 895.907 399.989 900.297 394.529C905.157 388.509 903.127 383.979 900.567 381.239C899.317 379.899 896.617 378.109 894.737 377.699C889.237 376.529 883.257 375.509 876.977 374.669C876.047 374.539 875.227 373.979 874.757 373.169C870.647 365.929 868.317 361.819 867.647 360.619L867.077 359.589C864.177 354.339 861.677 349.819 854.597 350.809C850.837 351.349 848.497 354.369 847.437 356.129ZM866.137 381.009C867.727 383.849 869.717 384.669 872.817 385.199L890.987 388.209C890.957 388.289 890.937 388.309 890.937 388.309C889.377 389.979 884.357 395.359 875.887 404.469C874.517 405.949 874.027 408.049 874.457 410.719C875.627 418.019 876.507 424.759 877.077 430.769C872.367 428.579 866.267 425.539 858.907 421.749C857.067 420.799 854.707 420.989 851.897 422.329C849.167 423.609 843.167 426.459 834.057 430.809C834.887 424.599 835.967 417.509 837.257 409.719C837.687 407.159 836.177 405.149 835.007 403.849C827.157 395.139 822.517 389.989 821.127 388.459C825.027 387.249 829.567 386.609 834.817 385.859C836.647 385.599 838.567 385.329 840.567 385.019C842.587 384.709 844.317 383.419 845.717 381.179C848.927 375.999 852.427 370.109 856.127 363.639C859.137 368.659 862.517 374.499 866.167 380.999L866.137 381.009Z" fill="black"/>
<path d="M795.537 388.959L778.617 388.989C777.107 388.989 775.696 389.579 774.626 390.649C773.566 391.719 772.977 393.129 772.977 394.639V395.02C772.977 396.53 773.567 397.94 774.637 399C775.697 400.06 777.117 400.649 778.617 400.649H778.626L795.546 400.619C798.656 400.619 801.187 398.079 801.177 394.969V394.589C801.177 393.079 800.587 391.669 799.517 390.609C798.457 389.549 797.037 388.959 795.537 388.959Z" fill="black"/>
<path d="M932.486 400.679C935.566 400.679 938.087 398.179 938.107 395.099V394.679C938.127 391.579 935.626 389.04 932.526 389.02L917.006 388.909H916.966C913.886 388.909 911.366 391.409 911.346 394.489V394.909C911.326 398.009 913.826 400.549 916.926 400.569L932.446 400.679H932.486Z" fill="black"/>
<path d="M813.736 440.879C812.586 439.729 811.056 439.089 809.426 439.089H809.416C807.786 439.089 806.266 439.719 805.106 440.869L792.456 453.479C790.076 455.849 790.066 459.719 792.446 462.109L792.676 462.339C793.826 463.489 795.356 464.129 796.986 464.129H796.996C798.626 464.129 800.146 463.499 801.306 462.349L813.956 449.739C816.336 447.369 816.346 443.499 813.966 441.109L813.736 440.879Z" fill="black"/>
<path d="M898.757 440.989L898.557 441.19C896.267 443.57 896.337 447.38 898.717 449.67L911.877 462.329C913.037 463.449 914.537 464 916.037 464C917.607 464 919.187 463.389 920.357 462.159L920.547 461.96C922.837 459.58 922.767 455.77 920.387 453.48L907.227 440.819C906.067 439.709 904.577 439.129 902.947 439.139C901.347 439.169 899.847 439.82 898.737 440.98L898.757 440.989Z" fill="black"/>
<path d="M855.897 456.299C852.687 456.299 850.077 458.899 850.077 462.109L850.037 484.989C850.037 486.539 850.637 488.009 851.737 489.109C852.837 490.209 854.297 490.819 855.847 490.819H856.187C859.387 490.819 861.997 488.219 862.007 485.009L862.047 462.129C862.047 460.579 861.447 459.109 860.347 458.009C859.247 456.909 857.787 456.299 856.237 456.299H855.897Z" fill="black"/>
<path d="M832.557 720.86C839.237 721.76 843.577 722.17 845.847 722.15C847.397 722.12 851.837 722.13 859.037 722.19C859.397 722.19 859.757 722.19 860.117 722.19C872.537 722.19 889.867 720.529 904.037 712.909C918.697 705.029 927.037 692.499 928.827 675.659C929.807 666.349 926.847 655.74 925.527 651.61C920.387 635.55 910.817 619.91 897.857 606.38C893.587 601.92 888.307 596.84 882.157 591.29C884.947 587.1 888.297 582.12 892.117 576.48C894.197 573.42 895.407 571.19 895.787 569.69C896.757 565.93 896.097 562.35 893.947 559.59C891.677 556.68 887.937 555.05 883.727 555.04C880.547 555.05 877.437 554.999 874.477 554.889C873.767 554.859 873.087 554.529 872.637 553.989C871.467 552.589 867.347 547.929 863.547 546.949C859.457 545.889 854.607 545.84 849.137 546.79C848.367 546.92 847.627 547.18 846.947 547.54C844.027 549.1 842.187 551.05 839.637 553.75L839.407 554C838.847 554.6 838.057 554.96 837.217 554.92C832.477 554.83 828.667 554.899 825.907 555.119C821.937 555.439 818.537 557.699 816.817 561.179C815.027 564.809 815.317 569.08 817.597 572.61C820.927 577.76 825.117 583.849 830.037 590.779C825.507 594.829 821.557 598.479 818.297 601.599C803.947 615.379 792.597 632.53 787.157 648.67C780.197 669.33 782.917 687.94 795.037 702.5C802.927 711.99 816.587 718.67 832.527 720.84L832.557 720.86ZM869.457 597.86C871.137 597.84 872.587 598.06 873.727 598.48C873.967 598.57 874.187 598.699 874.387 598.849C878.287 601.899 883.467 606.8 889.787 613.4C904.637 628.93 914.447 646.98 917.417 664.21C920.807 683.87 911.057 699.719 891.347 706.599C883.927 709.189 876.037 710.639 867.907 710.909C850.727 711.489 834.497 712.03 818.407 705.81C805.037 700.64 795.627 688.45 794.437 674.77C792.827 656.31 802.527 633.92 820.377 614.88C824.837 610.12 830.177 604.949 836.257 599.509C837.147 598.709 838.837 597.86 840.207 597.86C854.927 597.89 864.777 597.88 869.467 597.86H869.457ZM872.267 586.06C871.927 586.53 871.377 586.81 870.797 586.81H841.437C840.997 586.81 840.587 586.589 840.337 586.219L826.867 566.61C826.777 566.48 826.727 566.33 826.717 566.19C826.827 566.16 827.017 566.12 827.317 566.09C828.367 566.01 832.277 565.99 838.927 566.04C838.967 566.04 839.007 566.04 839.047 566.04C844.157 566.04 846.347 563.34 848.277 560.96C849.197 559.83 850.067 558.759 851.187 558.029C851.677 557.719 852.217 557.49 852.787 557.36C854.147 557.06 856.207 557.01 858.907 557.21C861.027 557.37 862.157 558.829 863.727 560.849C863.947 561.129 864.167 561.42 864.407 561.71C866.967 564.92 869.597 566.14 873.727 566.04C876.567 565.98 880.377 566.019 885.047 566.159C884.937 567.129 884.627 567.99 884.137 568.73C879.367 575.88 875.377 581.71 872.277 586.04L872.267 586.06Z" fill="black"/>
<path d="M484.247 698.639C484.707 694.289 483.487 690.139 480.807 686.949C477.897 683.499 474.857 680.819 471.017 677.419C469.867 676.399 468.637 675.319 467.307 674.119C467.257 674.079 467.256 674.009 467.296 673.959C477.996 659.829 478.137 639.899 467.637 625.499C466.517 623.949 466.026 622.499 466.046 620.799C466.076 618.139 466.096 598.799 466.126 561.689C466.126 561.089 466.067 560.489 465.927 559.899C464.697 554.679 461.627 550.869 456.807 548.569C454.427 547.439 451.167 546.939 446.807 547.019C443.237 547.089 404.167 547.11 330.687 547.06H330.657C325.337 547.06 320.906 548.679 317.836 551.739C314.766 554.799 313.066 559.399 313.066 564.869C313.126 616.519 313.127 662.75 313.077 702.29C313.077 706.78 314.957 711.329 318.117 714.469C320.757 717.089 323.997 718.469 327.487 718.429C332.167 718.389 336.707 718.399 340.987 718.469C347.557 718.569 350.957 717.869 355.017 713.199C355.147 713.059 355.366 713.039 355.526 713.189C359.136 717.039 362.467 718.449 367.977 718.459C373.597 718.449 377.587 718.429 379.937 718.399C384.747 718.349 387.797 716.959 390.687 713.469C394.357 717.529 397.137 718.499 402.217 718.499C402.697 718.499 403.197 718.499 403.717 718.479L412.677 718.439C418.637 718.419 421.617 717.159 424.807 713.279C429.127 717.429 432.107 718.589 437.937 718.439C438.807 718.409 442.087 718.419 447.697 718.439C454.657 718.449 458.497 718.189 463.157 712.099C463.217 712.019 463.327 711.979 463.427 712.009C469.057 713.719 474.037 712.939 478.217 709.679C481.567 707.079 483.757 703.059 484.227 698.639H484.247ZM463.387 656.619C461.597 664.539 456.837 671.239 449.987 675.479C435.847 684.249 417.107 679.699 408.197 665.339C399.297 650.979 403.557 632.169 417.697 623.399C431.837 614.639 450.577 619.18 459.487 633.54C463.797 640.5 465.186 648.689 463.396 656.619H463.387ZM455.006 564.969C454.866 580.289 454.847 596.749 454.937 613.919C450.267 610.839 444.946 608.889 439.106 608.119C424.356 606.179 410.126 611.979 401.046 623.629C391.916 635.339 389.757 650.639 395.267 664.579C401.717 680.889 417.357 691.189 433.997 691.179C437.287 691.179 440.617 690.779 443.917 689.939C443.997 689.929 444.096 689.999 444.106 690.099C444.666 695.729 449.336 700.229 453.086 703.849L453.876 704.609C453.896 704.679 453.927 704.769 453.967 704.879C454.127 705.379 453.877 705.919 453.407 706.149C451.747 706.929 449.917 707.329 447.957 707.329C444.437 707.329 440.597 707.33 436.417 707.29C435.237 707.28 434.117 706.749 433.367 705.839C431.497 703.589 429.177 701.229 426.177 700.699C421.667 699.889 419.096 702.699 416.376 705.659C416.066 705.989 415.757 706.329 415.437 706.679C415.057 707.079 414.517 707.319 413.957 707.319C410.157 707.339 406.247 707.349 402.217 707.349C400.017 707.349 398.786 705.739 397.586 704.179L397.316 703.839C394.776 700.569 390.707 699.709 386.937 701.629C385.667 702.279 384.417 703.639 383.327 704.839C382.887 705.319 382.477 705.769 382.077 706.159C381.307 706.909 380.287 707.329 379.217 707.329C373.307 707.349 369.627 707.359 368.197 707.369C365.367 707.359 364.377 706.339 362.597 704.439C362.307 704.129 361.997 703.799 361.657 703.449C359.837 701.589 357.526 700.569 355.146 700.569C355.086 700.569 355.037 700.569 354.977 700.569C352.637 700.619 350.416 701.669 348.776 703.489C348.726 703.539 347.847 704.429 346.157 706.159C345.507 706.819 344.647 707.189 343.717 707.209C335.137 707.339 329.947 707.349 328.287 707.259C325.377 707.109 324.296 705.409 324.296 701.009C324.306 632.539 324.306 587.579 324.296 566.119C324.296 562.729 324.786 560.719 325.896 559.609C326.916 558.589 328.667 558.139 331.437 558.109C400.797 558.159 440.017 558.139 447.987 558.049C450.417 558.039 452.216 558.579 453.356 559.719C454.476 560.839 455.026 562.599 455.006 564.959V564.969ZM455.506 686.209L459.506 682.869C459.576 682.809 459.687 682.809 459.767 682.869C461.907 684.689 465.636 688.009 470.856 692.709C472.596 694.269 473.477 696.249 473.227 697.989C473.007 699.489 471.977 700.729 470.247 701.549C468.877 702.209 467.267 701.549 465.037 699.409C462.407 696.879 459.827 694.269 457.367 691.649C456.217 690.429 455.436 689.109 455.046 687.729C454.886 687.169 455.077 686.569 455.517 686.209H455.506Z" fill="black"/>
<path d="M696.057 720.129C697.087 721.159 698.457 721.729 699.927 721.739H700.127C703.147 721.739 705.597 719.289 705.607 716.249C705.547 696.449 705.537 676.499 705.587 656.959C705.597 650.649 705.337 646.399 704.777 643.959C702.667 634.699 696.647 626.799 690.467 619.639C686.097 614.579 681.557 609.639 676.967 604.949C676.847 604.829 676.747 604.679 676.697 604.519C676.287 603.339 676.077 601.839 676.077 600.049C676.097 578.819 676.127 567.479 676.167 566.329C676.447 557.379 673.557 551.859 666.787 548.439C664.647 547.349 661.377 546.889 656.797 547.039C655.117 547.079 634.607 547.089 595.857 547.039H595.707C590.197 547.039 586.637 547.429 584.807 548.239C581.187 549.849 578.387 552.469 576.477 556.039C575.437 557.979 574.947 562.069 574.967 568.529C575.037 593.159 575.047 623.039 574.997 657.349C574.977 666.479 575.617 673.279 584.087 677.689C586.277 678.829 589.867 679.349 595.077 679.279C601.207 679.189 608.547 679.189 616.907 679.259C615.807 689.259 618.157 698.369 623.897 706.339L625.687 708.829C626.757 710.319 627.307 711.079 627.337 711.129C627.587 711.469 627.767 711.849 627.877 712.259C628.097 713.039 628.177 713.929 628.277 714.859C628.427 716.419 628.587 718.039 629.407 719.299C630.537 721.039 632.307 721.989 634.147 721.989C634.917 721.989 635.687 721.819 636.437 721.479C640.047 719.809 639.937 716.699 639.827 713.399V713.129C639.727 710.569 639.247 708.759 638.347 707.599C631.167 698.319 626.187 690.829 627.787 679.249H639.937C640.077 679.249 640.207 679.319 640.277 679.439L644.127 685.969C644.837 687.169 645.967 688.019 647.317 688.369C648.667 688.719 650.077 688.519 651.267 687.819L651.617 687.599C653.987 686.129 654.797 683.069 653.457 680.619C647.367 669.529 643.617 662.499 642.307 659.719C640.787 656.509 640.657 653.739 641.907 651.269C643.147 648.819 645.137 647.459 647.517 647.439H647.577C650.257 647.439 652.917 649.209 654.377 651.949C658.457 659.619 662.477 667.439 666.327 675.189C668.407 679.389 672.437 680.279 675.347 678.989C678.147 677.749 680.317 674.259 678.467 669.539C678.317 669.159 677.937 668.349 676.357 665.729C676.187 665.449 676.097 665.119 676.097 664.789V620.339C679.387 623.739 682.247 626.989 684.637 629.989C691.027 638.049 694.487 644.149 694.487 653.299V716.259C694.487 717.719 695.047 719.089 696.077 720.119L696.057 720.129ZM665.107 648.949C661.167 639.559 653.037 635.939 646.107 636.619C640.497 637.169 635.817 640.079 632.927 644.799C629.797 649.919 629.297 656.469 631.597 662.309C632.387 664.319 633.317 666.239 634.377 668.009C623.037 667.989 610.937 667.989 598.077 668.009C597.547 668.009 597.027 668.009 596.517 668.019C592.667 668.059 589.337 668.099 587.607 666.389C586.647 665.439 586.177 663.929 586.177 661.769C586.137 611.439 586.137 578.409 586.177 563.589C586.187 559.919 588.067 558.199 592.087 558.179C598.217 558.139 611.877 558.119 632.837 558.119C640.617 558.119 649.407 558.119 659.187 558.119C660.737 558.119 662.107 558.749 663.387 560.039C665.457 562.119 665.227 567.559 665.097 570.809C665.077 571.229 665.067 571.629 665.047 571.999C665.017 573.219 665.027 599.099 665.087 648.929L665.107 648.949Z" fill="black"/>
<path d="M166.817 719.299C170.227 719.299 173.677 719.089 177.147 718.659C223.337 712.909 256.157 670.009 250.307 623.039C247.477 600.289 236.097 579.989 218.277 565.869C200.447 551.749 178.307 545.509 155.927 548.289C109.737 554.039 76.9169 596.939 82.7669 643.909C88.1769 687.349 124.807 719.299 166.827 719.299H166.817ZM212.117 575.369C227.387 587.849 237.007 605.609 239.187 625.399C241.377 645.189 235.867 664.629 223.687 680.129C211.507 695.629 194.117 705.349 174.707 707.489C155.297 709.629 136.207 703.939 120.937 691.469C105.667 678.989 96.047 661.229 93.867 641.439C89.357 600.599 118.287 563.769 158.347 559.349C177.757 557.209 196.847 562.899 212.117 575.369Z" fill="black"/>
<path d="M397.616 776.039H397.256C394.218 776.039 391.756 778.501 391.756 781.539V798.799C391.756 801.836 394.218 804.299 397.256 804.299H397.616C400.654 804.299 403.116 801.836 403.116 798.799V781.539C403.116 778.501 400.654 776.039 397.616 776.039Z" fill="black"/>
<path d="M251.087 931.949V792.149C251.087 783.589 244.127 776.629 235.567 776.629H99.8071C91.2471 776.629 84.2871 783.589 84.2871 792.149V931.949C84.2871 940.509 91.2471 947.469 99.8071 947.469H235.567C244.127 947.469 251.087 940.509 251.087 931.949ZM95.7769 850.109C125.817 850.029 150.067 849.979 167.857 849.979C185.757 849.979 210.007 850.039 239.937 850.129C239.977 872.779 239.977 899.919 239.927 930.809C239.927 935.679 237.817 936.159 232.257 936.209C231.307 936.219 210.237 936.229 167.847 936.219C125.467 936.219 104.397 936.199 103.427 936.189C97.8672 936.139 95.7671 935.659 95.7671 930.789C95.7271 899.799 95.7271 872.659 95.7671 850.109H95.7769ZM95.7373 839.059V792.919C95.7373 790.169 98.1369 787.939 101.087 787.939H234.567C237.517 787.939 239.917 790.169 239.917 792.919V839.059H95.7373Z" fill="black"/>
<path d="M625.026 926.279C625.026 926.279 625.106 926.229 625.136 926.229C625.166 926.239 625.216 926.229 625.266 926.279C635.726 937.529 648.506 942.919 663.196 942.289C677.816 941.669 691.776 933.469 699.636 920.879C707.256 908.699 709.696 894.559 706.496 881.059C703.406 868.009 695.236 856.849 683.486 849.609C692.766 823.879 700.636 802.359 706.886 785.659C707.646 783.619 708.046 780.519 706.656 778.479C706.106 777.669 705.026 776.699 703.026 776.669C698.366 776.599 689.336 776.579 676.196 776.619C673.816 776.619 672.156 777.759 671.386 779.879C664.636 798.809 656.886 820.159 648.326 843.319C647.706 844.989 646.096 846.109 643.396 846.749L643.296 846.709C642.856 846.249 642.316 845.449 641.686 844.319C639.456 840.289 636.946 835.249 634.216 829.349C632.966 826.629 629.716 825.419 627.006 826.649L626.696 826.789C623.856 828.059 622.576 831.399 623.846 834.229C623.886 834.319 623.926 834.409 623.976 834.489L632.806 851.789L624.496 858.729C621.326 855.409 617.696 852.399 613.706 849.769C626.886 813.999 634.816 792.549 637.276 786.019C637.936 784.279 638.796 781.019 637.216 778.719C636.266 777.339 634.656 776.639 632.436 776.629C608.946 776.579 605.726 776.629 605.346 776.649C603.576 776.789 602.026 777.949 601.406 779.619L589.436 811.639C586.006 802.719 581.946 791.999 577.366 779.759C576.396 777.159 574.536 776.609 573.146 776.609C558.366 776.609 550.186 776.609 548.616 776.609C546.286 776.589 543.676 776.719 542.186 778.349C541.266 779.359 540.906 780.769 541.096 782.659C541.216 783.839 541.496 785.019 541.916 786.159C552.186 814.079 560.226 835.729 565.796 850.519C553.646 858.059 545.456 869.669 542.726 883.209C539.996 896.779 543.066 910.669 551.396 922.329C559.346 933.469 571.646 940.669 585.146 942.079C586.816 942.249 588.476 942.339 590.116 942.339C601.526 942.339 612.256 938.179 620.766 930.379C622.436 928.849 623.876 927.459 625.036 926.259L625.026 926.279ZM669.866 929.909C655.796 933.879 641.186 928.679 631.746 916.349C631.696 916.289 631.696 916.209 631.726 916.149C640.206 900.789 640.106 884.059 631.436 867.789C631.396 867.709 631.406 867.619 631.466 867.559C642.306 856.109 654.166 851.879 667.736 854.619C673.076 855.699 678.016 858.189 682.426 862.009C693.116 871.279 697.786 883.189 696.306 897.409C694.646 913.329 684.516 925.779 669.866 929.919V929.909ZM673.466 843.979L660.316 842.929L680.206 787.779H694.446L673.456 843.979H673.466ZM596.186 823.969C600.466 812.939 605.106 800.789 609.996 787.859C610.016 787.809 610.056 787.779 610.116 787.779H625.026L603.636 844.939C602.716 844.629 601.846 843.669 601.366 842.439C599.716 838.199 597.936 833.759 596.096 829.209C595.416 827.549 595.446 825.829 596.176 823.959L596.186 823.969ZM626.716 892.199C626.806 902.529 623.056 912.269 616.146 919.629C609.256 926.979 600.036 931.069 590.206 931.159C590.106 931.159 589.996 931.159 589.896 931.159C569.716 931.159 553.206 914.039 553.016 892.839C552.826 871.529 569.206 854.059 589.526 853.879C609.806 853.679 626.526 870.889 626.716 892.199ZM554.136 787.709L568.756 787.679L589.406 842.939C584.856 842.969 579.756 843.159 575.356 844.509L554.136 787.699V787.709Z" fill="black"/>
<path d="M360.377 819.299C360.437 819.299 360.497 819.299 360.547 819.299C362.007 819.299 363.377 818.749 364.447 817.749L364.667 817.539C365.777 816.499 366.407 815.089 366.457 813.569C366.507 812.049 365.957 810.609 364.907 809.499L353.987 797.909C351.837 795.629 348.227 795.519 345.947 797.669L345.727 797.879C344.617 798.919 343.987 800.329 343.937 801.849C343.897 803.369 344.437 804.809 345.487 805.919L356.407 817.509C357.447 818.619 358.857 819.249 360.377 819.299Z" fill="black"/>
<path d="M449.877 798.039L449.657 797.839C448.537 796.799 447.077 796.269 445.547 796.329C444.017 796.389 442.607 797.039 441.577 798.169L430.837 809.809C429.797 810.929 429.267 812.389 429.327 813.919C429.387 815.449 430.037 816.859 431.167 817.889L431.387 818.089C432.487 819.099 433.877 819.599 435.267 819.599C436.807 819.599 438.347 818.979 439.477 817.759L450.217 806.119C452.357 803.799 452.207 800.179 449.897 798.039H449.877Z" fill="black"/>
<path d="M797.476 923.72C851.666 923.66 892.916 923.66 920.076 923.72H920.116C931.026 923.72 937.987 918.92 940.227 909.84C940.767 907.63 941.046 904.68 941.056 901.07C941.056 874.8 941.056 852.2 941.056 833.27V831.34C941.086 823.12 941.107 816.62 934.687 811.44C930.717 808.24 926.736 807.59 921.956 807.6C904.856 807.63 862.846 807.64 797.106 807.62C792.026 807.62 788.946 807.71 787.696 807.9C778.036 809.4 771.496 817.3 771.416 827.55C771.286 843.58 771.296 844.01 771.306 844.13C771.556 848.13 772.486 850.51 776.656 851.59C781.576 852.86 785.136 855.15 787.236 858.39C790.196 862.93 789.866 868.77 786.426 872.9C783.476 876.44 779.606 878.42 776.196 880.17C775.576 880.49 774.976 880.79 774.406 881.1C772.536 882.1 771.526 883.81 771.466 886.04C771.356 890.29 771.376 895.44 771.506 901.34C771.726 912.15 775.486 918.75 783.326 922.1C785.896 923.2 790.486 923.74 797.356 923.74H797.486L797.476 923.72ZM782.736 889.82C782.736 889.75 782.786 889.68 782.856 889.66C792.636 886.39 799.746 876.28 799.756 865.61C799.766 854.95 792.676 844.83 782.896 841.54C782.826 841.52 782.776 841.45 782.776 841.38C782.756 837.99 782.756 834.19 782.776 829.99C782.776 825.2 783.476 822.02 786.956 819.9C787.546 819.55 789.436 818.95 795.436 818.95C850.316 819.02 882.456 819.06 891.036 819.05C891.056 823.28 891.056 838.95 891.036 865.7C891.016 892.02 890.986 908.08 890.956 912.34C882.356 912.32 850.206 912.3 795.346 912.27C789.346 912.27 787.456 911.66 786.876 911.31C783.386 909.19 782.706 906 782.706 901.2C782.696 897 782.706 893.2 782.726 889.82H782.736ZM929.806 904.31C929.806 906.85 929.186 908.69 927.896 909.96C925.596 912.23 921.207 912.46 917.227 912.39C914.617 912.34 911.866 912.32 908.996 912.32C906.776 912.32 904.496 912.33 902.146 912.36V819.09C910.566 818.99 918.336 819.02 925.266 819.2C928.926 819.29 929.846 823.71 929.816 826.3C929.716 834.27 929.716 860.52 929.816 904.31H929.806Z" fill="black"/>
<path d="M378.796 859.41C378.936 859.41 379.066 859.41 379.206 859.41C389.096 859.17 396.926 850.11 396.656 839.23C396.386 828.34 388.136 819.7 378.236 819.92C368.346 820.16 360.516 829.22 360.786 840.1C360.916 845.35 362.886 850.25 366.346 853.9C369.726 857.47 374.136 859.41 378.796 859.41ZM379.186 831.67C381.046 831.78 382.746 832.69 383.986 834.23C385.246 835.8 385.866 837.83 385.736 839.94C385.476 844.27 382.106 847.58 378.226 847.36C374.356 847.12 371.416 843.41 371.676 839.08C371.936 834.9 375.086 831.65 378.796 831.65C378.926 831.65 379.056 831.65 379.186 831.66V831.67Z" fill="black"/>
<path d="M376.766 900.579C377.106 900.579 377.436 900.549 377.776 900.489C379.216 900.219 380.466 899.409 381.296 898.199L427.916 830.369C429.626 827.879 428.996 824.449 426.496 822.739L426.416 822.679C423.916 820.969 420.496 821.599 418.786 824.099L372.166 891.929C370.456 894.419 371.086 897.849 373.666 899.619C374.596 900.259 375.666 900.589 376.766 900.589V900.579Z" fill="black"/>
<path d="M343.526 845.359L326.966 845.419C325.506 845.419 324.126 846 323.096 847.04C322.066 848.08 321.496 849.459 321.506 850.919V851.279C321.516 854.299 323.976 856.739 326.986 856.739H327.006L343.566 856.679C346.586 856.669 349.036 854.199 349.026 851.179V850.819C349.016 847.799 346.556 845.359 343.546 845.359H343.526Z" fill="black"/>
<path d="M469.217 845.379H451.217C448.406 845.379 446.127 847.658 446.127 850.469V851.669C446.127 854.48 448.406 856.759 451.217 856.759H469.217C472.028 856.759 474.307 854.48 474.307 851.669V850.469C474.307 847.658 472.028 845.379 469.217 845.379Z" fill="black"/>
<path d="M420.267 902.679C420.437 902.679 420.607 902.679 420.787 902.679C430.447 902.679 438.487 894.159 438.827 883.429C438.997 878.159 437.296 873.139 434.046 869.299C430.776 865.429 426.327 863.209 421.517 863.059C411.637 862.749 403.307 871.379 402.967 882.299C402.627 893.219 410.386 902.348 420.276 902.658L420.267 902.679ZM420.957 890.919C417.067 890.899 413.917 887.259 413.937 882.809C413.957 878.369 417.126 874.779 421.006 874.779H421.037C424.927 874.799 428.077 878.438 428.057 882.888C428.037 887.338 424.877 890.959 420.957 890.919Z" fill="black"/>
<path d="M343.486 909.48C344.556 910.52 345.966 911.1 347.456 911.1C347.476 911.1 347.506 911.1 347.526 911.1C349.046 911.08 350.466 910.47 351.526 909.38L363.746 896.86C365.936 894.61 365.896 891.01 363.646 888.81L363.416 888.59C361.166 886.4 357.566 886.44 355.366 888.69L343.146 901.21C342.086 902.3 341.506 903.73 341.526 905.25C341.546 906.77 342.156 908.19 343.246 909.25L343.476 909.47L343.486 909.48Z" fill="black"/>
<path d="M440.697 906.449C442.787 909.419 445.687 911.119 448.237 911.119C449.257 911.119 450.216 910.839 451.046 910.259C452.486 909.249 453.237 907.499 453.157 905.329C453.087 903.319 452.306 901.149 450.956 899.229C448.036 895.069 443.487 893.399 440.617 895.419C437.737 897.439 437.776 902.279 440.706 906.449H440.697Z" fill="black"/>
<path d="M397.537 914.039H397.217C394.169 914.039 391.697 916.51 391.697 919.559V940.499C391.697 943.548 394.169 946.019 397.217 946.019H397.537C400.586 946.019 403.057 943.548 403.057 940.499V919.559C403.057 916.51 400.586 914.039 397.537 914.039Z" fill="black"/>
<path d="M128.396 115.489L126.906 113.11C126.906 113.11 126.876 113.01 126.906 112.96C129.646 108.17 129.246 103.88 125.706 100.21C121.946 96.3097 115.796 96.7496 110.846 97.1096L110.016 97.1697C107.066 97.3797 105.326 99.4298 105.246 102.79C105.036 111.4 105.046 118.64 105.296 124.31C105.446 127.61 107.536 129.48 111.176 129.56C111.896 129.58 112.606 129.6 113.306 129.63C114.456 129.67 115.556 129.71 116.626 129.71C119.666 129.71 122.386 129.389 124.776 127.889C128.746 125.399 130.076 121.48 128.736 116.25C128.666 115.98 128.556 115.71 128.406 115.48L128.396 115.489ZM119.056 107.8C119.056 108.25 118.196 108.85 116.896 108.88L114.666 108.86L114.686 106.28L116.916 106.3C118.226 106.31 119.056 106.97 119.056 107.42V107.8ZM117.886 118.3C118.346 118.3 118.836 118.419 119.156 118.639C119.256 118.709 119.496 118.89 119.496 119.09V119.56C119.496 119.89 118.866 120.39 117.906 120.4L114.686 120.44L114.666 118.34L117.886 118.3Z" fill="black"/>
<path d="M141.906 98.3594C141.046 97.4994 139.896 97.0293 138.686 97.0293H138.476C135.956 97.0293 133.906 99.0894 133.916 101.609L133.956 125.27C133.956 126.49 134.436 127.64 135.296 128.5C136.156 129.36 137.306 129.829 138.526 129.829H138.736C139.956 129.829 141.106 129.349 141.966 128.489C142.826 127.629 143.296 126.479 143.296 125.259L143.256 101.599C143.256 100.379 142.776 99.2291 141.916 98.3691L141.906 98.3594Z" fill="black"/>
<path d="M170.077 97.159H169.887C168.687 97.099 167.547 97.5189 166.667 98.3289C165.787 99.1389 165.277 100.249 165.227 101.439C165.227 101.509 165.227 101.589 165.227 101.659L165.287 110.669C162.777 106.939 160.186 103.159 157.566 99.4491C156.216 97.5191 153.857 96.6792 151.707 97.3592C149.757 97.9692 148.536 99.6892 148.526 101.839C148.496 107.779 148.526 115.649 148.586 125.219C148.596 127.669 150.607 129.689 153.017 129.729H153.217C155.657 129.829 157.787 127.909 157.887 125.449C157.887 125.379 157.887 125.299 157.887 125.229L157.827 116.189C160.327 119.929 162.926 123.709 165.546 127.439C166.586 128.919 168.227 129.759 169.907 129.759C170.407 129.759 170.917 129.679 171.407 129.529C173.357 128.919 174.576 127.199 174.586 125.049C174.616 119.109 174.586 111.239 174.526 101.669C174.516 99.2193 172.506 97.199 170.086 97.159H170.077Z" fill="black"/>
<path d="M199.316 110.02C199.836 109.88 200.346 109.659 200.826 109.369C201.386 109.039 201.776 108.51 201.936 107.88C203.136 103.07 199.546 99.3795 195.456 97.8595C191.666 96.4495 187.246 96.9797 183.926 99.2297C180.886 101.29 179.096 104.579 179.006 108.239C178.996 108.779 178.966 109.42 178.936 110.13C178.766 114.31 178.506 120.639 180.386 123.699C182.796 127.649 186.786 129.779 191.006 129.779C193.356 129.779 195.776 129.12 198.036 127.75C202.656 124.95 203.036 120.07 202.856 116.13C202.746 113.62 202.206 111.009 199.306 110.029L199.316 110.02ZM189.886 110.969C188.936 111.989 188.646 113.45 189.036 115.31C189.386 116.95 190.706 118.259 192.416 118.639C193.126 118.799 193.356 118.9 193.406 118.92C193.506 119 193.516 119.15 193.376 119.31C191.716 120.39 190.346 120.559 189.166 119.829C189.046 119.759 188.936 119.65 188.846 119.52C187.766 117.93 188.156 112.149 188.306 109.969L188.356 109.25C188.506 106.85 189.666 106.48 190.776 106.44C190.796 106.44 190.826 106.44 190.846 106.44C191.866 106.44 192.856 107.21 193.786 108.73C193.956 109.01 194.186 109.249 194.456 109.429C192.596 109.439 190.946 109.82 189.886 110.96V110.969Z" fill="black"/>
<path d="M218.456 97.2593H216.996C214.026 97.2793 211.236 98.4394 209.136 100.549C207.046 102.659 205.896 105.459 205.906 108.429L205.946 118.549C205.966 124.669 210.956 129.639 217.076 129.639H218.576C221.546 129.619 224.336 128.459 226.436 126.349C228.526 124.239 229.676 121.439 229.666 118.469L229.626 108.349C229.606 102.209 224.626 97.2393 218.456 97.2593ZM220.336 118.21C220.336 118.76 220.126 119.269 219.736 119.659C219.346 120.049 218.836 120.259 218.286 120.259H217.306C216.176 120.259 215.256 119.34 215.256 118.21L215.236 108.73C215.236 108.18 215.446 107.669 215.836 107.279C216.226 106.889 216.736 106.679 217.286 106.679H218.266C219.396 106.679 220.316 107.6 220.316 108.73L220.336 118.21Z" fill="black"/>
<path d="M828.146 206.069C836.466 212.039 846.216 215.159 856.246 215.159C858.896 215.159 861.567 214.939 864.237 214.499C876.987 212.389 888.157 205.419 895.677 194.889C903.197 184.349 906.176 171.509 904.056 158.719C899.686 132.319 874.716 114.379 848.376 118.749C822.046 123.109 804.186 148.129 808.556 174.529C810.676 187.319 817.626 198.519 828.146 206.069ZM827.967 142.569C834.367 134.989 843.327 130.369 853.197 129.559C854.217 129.479 855.236 129.429 856.246 129.429C875.326 129.429 891.596 144.189 893.186 163.609C894.006 173.519 890.926 183.149 884.516 190.729C878.116 198.309 869.156 202.929 859.286 203.739C838.906 205.419 820.976 190.139 819.286 169.679C818.466 159.769 821.546 150.139 827.956 142.559L827.967 142.569Z" fill="black"/>
<path d="M843.816 151.919H858.266L847.226 185.729C846.766 187.129 846.876 188.619 847.546 189.929C848.206 191.239 849.346 192.219 850.736 192.669C850.816 192.699 850.906 192.72 850.986 192.75L851.236 192.819C851.756 192.969 852.286 193.029 852.806 193.029C855.266 193.029 857.556 191.47 858.386 189.02C861.866 178.76 865.476 167.929 869.106 156.829C869.376 156.009 869.816 154.949 870.286 153.829C871.536 150.819 872.346 148.749 872.226 147.389C871.806 142.679 868.856 141.519 866.446 141.369C863.326 141.179 855.576 141.109 843.426 141.159C842.076 141.159 840.816 141.699 839.866 142.649C838.916 143.609 838.396 144.869 838.406 146.219V146.649C838.486 149.609 840.866 151.919 843.826 151.919H843.816Z" fill="black"/>
<path d="M361.167 181.02C352.367 181.02 345.207 188.179 345.207 196.979C345.207 205.779 352.367 212.939 361.167 212.939C369.967 212.939 377.127 205.779 377.127 196.979C377.127 188.179 369.967 181.02 361.167 181.02ZM366.177 197.04C366.177 199.77 363.957 201.989 361.227 201.989C358.497 201.989 356.277 199.77 356.277 197.04C356.277 194.31 358.497 192.089 361.227 192.089C363.957 192.089 366.177 194.31 366.177 197.04Z" fill="black"/>
<path d="M392.397 196.42C384.067 195.25 376.297 201.23 375.107 209.75C374.527 213.87 375.557 217.97 377.997 221.29C380.447 224.62 384.017 226.759 388.057 227.329C388.757 227.429 389.457 227.48 390.147 227.48C397.657 227.48 404.257 221.81 405.347 214C405.927 209.88 404.897 205.78 402.457 202.46C400.007 199.13 396.437 196.99 392.397 196.42ZM390.217 216.219C387.797 216.219 385.827 214.249 385.827 211.829C385.827 209.409 387.797 207.44 390.217 207.44C392.637 207.44 394.607 209.409 394.607 211.829C394.607 214.249 392.637 216.219 390.217 216.219Z" fill="black"/>
<path d="M373.256 412.849C376.976 414.549 377.907 414.989 377.957 415.009C378.057 415.069 378.117 415.179 378.137 415.299C378.217 415.839 378.257 416.43 378.267 417.04C378.277 418.97 379.096 420.62 380.506 421.56C381.276 422.07 382.157 422.329 383.087 422.329C383.807 422.329 384.547 422.179 385.307 421.869C386.507 421.379 387.317 420.269 387.427 418.969L387.707 415.429C387.717 415.259 387.827 415.12 387.997 415.07C397.197 412.14 402.077 406.689 402.497 398.869C402.997 389.369 398.657 383.04 389.567 380.06C388.817 379.81 387.997 379.57 387.137 379.31C382.577 377.93 376.897 376.22 375.317 372.75C374.637 371.27 374.757 369.55 375.677 367.5C376.887 364.81 379.047 363.409 382.287 363.199C387.007 362.889 388.727 365.329 390.717 368.139C391.397 369.099 392.097 370.1 392.947 370.98C394.547 372.65 396.207 372.57 397.307 372.21C400.647 371.12 401.897 368.49 400.807 364.81C398.807 358.02 393.957 355.32 388.827 352.46C388.727 352.4 388.647 352.31 388.607 352.21C388.357 351.57 388.277 350.81 388.187 350C387.977 348.06 387.716 345.649 384.796 344.599C382.986 343.949 381.687 344.449 380.907 344.989C378.937 346.349 378.187 349.36 378.147 351.54C378.147 352.03 377.857 352.469 377.407 352.679C371.617 355.399 363.967 360.249 364.317 370.929C364.697 382.209 373.177 385.11 381.377 387.92C382.807 388.41 384.287 388.92 385.687 389.46C388.527 390.56 389.617 391.3 390.017 391.73C392.167 394 392.867 396.619 391.987 399.119C391.007 401.899 388.186 404 384.796 404.46C379.696 405.16 376.077 403.529 373.727 399.469C373.507 399.089 373.287 398.7 373.077 398.31C371.947 396.26 370.787 394.14 368.767 393.57C367.627 393.25 366.367 393.48 365.017 394.25C364.067 394.79 363.417 395.68 363.107 396.9C361.407 403.41 368.037 410.489 373.267 412.889L373.256 412.849Z" fill="black"/>
<path d="M583.907 349.489L582.427 347.13C582.427 347.13 582.397 347.029 582.427 346.989C585.167 342.229 584.777 337.959 581.277 334.299C577.557 330.409 571.447 330.83 566.537 331.17L565.677 331.23C562.787 331.42 561.007 333.51 560.917 336.81C560.677 345.37 560.667 352.57 560.897 358.21C561.037 361.49 563.107 363.36 566.727 363.46C567.457 363.48 568.167 363.509 568.857 363.529C570.027 363.569 571.167 363.619 572.257 363.619C575.237 363.619 577.897 363.299 580.257 361.839C584.207 359.369 585.547 355.47 584.237 350.29C584.177 350.02 584.067 349.759 583.917 349.509L583.907 349.489ZM570.187 354.42L570.157 352.299L573.017 352.239C574.047 352.219 574.697 352.549 574.987 352.829C575.047 352.889 575.147 353.009 575.157 353.099V353.409C575.157 353.729 574.367 354.33 573.047 354.36L570.197 354.42H570.187ZM574.247 341.819C574.237 342.359 573.597 342.819 572.897 342.779L570.187 342.73L570.227 340.509L572.937 340.56C573.657 340.57 574.257 341.039 574.247 341.589V341.819ZM570.227 340.389L569.227 340.369H570.227V340.389Z" fill="black"/>
<path d="M596.877 332.369C596.017 331.519 594.887 331.049 593.677 331.049H593.467C590.967 331.049 588.927 333.089 588.937 335.599L588.977 359.159C588.977 361.659 591.017 363.689 593.517 363.689H593.727C594.937 363.689 596.077 363.209 596.937 362.349C597.797 361.489 598.266 360.349 598.256 359.139L598.217 335.579C598.217 334.369 597.737 333.229 596.887 332.369H596.877Z" fill="black"/>
<path d="M624.827 331.199H624.637C623.437 331.129 622.286 331.539 621.396 332.349C620.506 333.159 619.987 334.259 619.927 335.459C619.927 335.539 619.927 335.619 619.927 335.689V344.729C617.447 340.969 614.856 337.169 612.256 333.419C610.906 331.479 608.547 330.619 606.387 331.289C604.437 331.889 603.206 333.599 603.186 335.759C603.116 341.759 603.087 349.639 603.097 359.189C603.097 361.639 605.097 363.679 607.517 363.739H607.706C610.176 363.869 612.287 361.959 612.407 359.489C612.407 359.419 612.407 359.339 612.407 359.259V350.189C614.897 353.969 617.477 357.779 620.077 361.519C621.117 363.019 622.766 363.869 624.456 363.869C624.946 363.869 625.447 363.799 625.927 363.649C627.877 363.049 629.117 361.339 629.137 359.179C629.207 353.199 629.227 345.309 629.217 335.749C629.217 333.259 627.266 331.259 624.796 331.199H624.827Z" fill="black"/>
<path d="M654.127 343.999C654.667 343.849 655.197 343.629 655.697 343.329C656.257 342.989 656.647 342.459 656.797 341.829C657.997 336.969 654.357 333.259 650.217 331.739C646.387 330.329 641.927 330.879 638.587 333.159C635.527 335.249 633.727 338.579 633.647 342.279C633.637 342.819 633.617 343.449 633.587 344.149C633.427 348.389 633.187 354.789 635.107 357.889C637.547 361.849 641.567 363.979 645.807 363.979C648.197 363.979 650.647 363.309 652.937 361.909C657.597 359.059 657.967 354.129 657.767 350.159C657.647 347.619 657.097 344.969 654.137 343.999H654.127ZM644.657 344.999C643.697 346.039 643.417 347.509 643.817 349.379C644.177 351.039 645.517 352.349 647.237 352.729C647.947 352.889 648.177 352.979 648.237 353.009C648.337 353.099 648.357 353.249 648.217 353.429C646.547 354.529 645.157 354.709 643.957 353.959C643.837 353.889 643.727 353.779 643.637 353.649C642.547 352.049 642.917 346.209 643.057 344.009L643.107 343.269C643.247 340.829 644.417 340.459 645.547 340.409C645.577 340.409 645.597 340.409 645.627 340.409C646.657 340.409 647.657 341.189 648.607 342.709C648.787 343.009 649.037 343.259 649.317 343.449C647.447 343.469 645.737 343.849 644.667 344.999H644.657Z" fill="black"/>
<path d="M673.777 331.079H672.297C666.137 331.079 661.117 336.099 661.117 342.259V352.56C661.117 358.72 666.137 363.739 672.297 363.739H673.777C679.937 363.739 684.957 358.72 684.957 352.56V342.259C684.957 336.099 679.937 331.079 673.777 331.079ZM675.597 352.06C675.617 353.39 674.537 354.489 673.207 354.509H672.747C672.747 354.509 672.727 354.509 672.717 354.509C671.397 354.509 670.317 353.439 670.297 352.119L670.187 342.799C670.187 342.149 670.427 341.539 670.877 341.079C671.327 340.619 671.937 340.359 672.577 340.349H673.037C673.037 340.349 673.057 340.349 673.067 340.349C673.707 340.349 674.297 340.59 674.757 341.04C675.217 341.49 675.477 342.099 675.487 342.739L675.597 352.06Z" fill="black"/>
<path d="M157.456 414.319C158.076 414.999 158.367 415.909 158.237 416.829C157.527 422.009 157.076 426.349 156.876 429.719C156.726 432.219 157.756 434.34 159.936 436.02C161.326 437.07 162.827 437.599 164.447 437.599C165.797 437.599 167.216 437.23 168.706 436.5C171.946 434.89 175.147 433.289 178.307 431.709C179.497 431.109 180.197 431.109 181.387 431.709C184.547 433.299 187.737 434.889 190.987 436.489C194.257 438.109 197.206 437.939 199.756 436.009C201.946 434.339 202.966 432.219 202.816 429.719C202.616 426.349 202.157 422.009 201.447 416.819C201.327 415.899 201.607 414.99 202.237 414.31C206.037 410.17 208.597 407.349 209.827 405.899C212.027 403.319 212.796 399.75 211.776 396.81C210.896 394.27 208.887 392.56 206.097 392L193.876 389.54C193.146 389.4 192.526 388.899 192.206 388.229C190.206 383.929 188.356 380.229 186.706 377.229C185.126 374.369 182.817 372.919 179.827 372.919C176.837 372.919 174.516 374.369 172.936 377.229C171.286 380.229 169.437 383.939 167.447 388.239C167.127 388.919 166.506 389.409 165.776 389.549L153.557 392.009C150.767 392.579 148.756 394.289 147.876 396.839C146.866 399.779 147.637 403.339 149.847 405.909C151.087 407.349 153.636 410.179 157.436 414.319H157.456ZM189.617 413.109C189.867 416.749 190.307 420.239 190.907 423.509C187.767 421.489 183.157 418.549 179.927 418.549H179.896C176.656 418.559 172.057 421.559 168.927 423.619C169.507 420.339 169.907 416.839 170.117 413.199C170.217 411.449 169.707 409.979 168.577 408.839C165.627 405.879 163.317 403.599 161.677 402.069C166.517 401.529 169.527 401.169 170.887 400.959C173.247 400.589 175.006 399.139 176.126 396.639C176.576 395.649 177.806 393.049 179.766 388.929C181.776 393.059 183.017 395.639 183.467 396.599C184.607 399.099 186.386 400.539 188.756 400.889C190.116 401.089 193.136 401.419 197.956 401.919C196.336 403.469 194.037 405.76 191.117 408.75C190.007 409.9 189.497 411.369 189.617 413.129V413.109Z" fill="black"/>
<path d="M213.316 462H187.477C184.439 462 181.977 464.462 181.977 467.5V467.859C181.977 470.897 184.439 473.359 187.477 473.359H213.316C216.354 473.359 218.816 470.897 218.816 467.859V467.5C218.816 464.462 216.354 462 213.316 462Z" fill="black"/>
<path d="M580.246 398.539C580.246 396.429 579.296 394.799 577.666 394.069C575.906 393.289 573.706 393.739 572.066 395.229C569.836 397.229 567.556 399.469 565.276 401.879C563.506 403.759 563.996 405.949 565.276 407.289C566.686 408.769 569.216 409.389 571.156 407.989L571.096 422.779C571.096 423.909 571.526 424.969 572.326 425.779C573.126 426.579 574.186 427.019 575.316 427.029H575.636C578.066 427.069 580.146 425.109 580.196 422.599C580.256 417.109 580.276 409.019 580.266 398.549L580.246 398.539Z" fill="black"/>
<path d="M630.167 417.999H630.007H625.237C629.777 413.359 632.287 409.249 632.907 405.449C633.567 401.419 632.187 397.609 629.227 395.239C626.307 392.899 622.337 392.399 618.617 393.899C615.117 395.319 612.947 397.749 612.137 401.129C611.657 403.179 612.697 405.319 614.597 406.209L615.197 406.489C616.107 406.919 617.127 406.959 618.067 406.619C619.007 406.279 619.767 405.589 620.187 404.679C620.227 404.589 620.267 404.489 620.307 404.389C621.097 402.239 621.597 401.989 621.597 401.979C622.807 401.709 623.337 402.079 623.637 402.389C623.947 402.699 624.087 403.079 624.077 403.559C624.037 406.629 618.407 412.009 615.997 414.309L615.227 415.049C613.057 417.159 611.377 420.959 612.527 423.859C612.967 424.979 614.257 426.859 617.857 426.919C620.877 426.969 623.547 426.989 625.837 426.989C627.357 426.989 628.717 426.979 629.897 426.959C632.287 426.909 634.217 424.919 634.197 422.579V422.349C634.247 421.229 633.847 420.159 633.087 419.329C632.327 418.509 631.287 418.029 630.157 417.989L630.167 417.999Z" fill="black"/>
<path d="M662.257 424.199C664.657 426.209 667.667 427.249 670.647 427.249C672.887 427.249 675.107 426.669 677.037 425.479C681.177 422.949 682.937 418.379 681.757 413.259C681.597 412.579 681.287 411.909 680.987 411.259C680.707 410.659 680.447 410.089 680.337 409.609C680.307 409.469 680.317 409.329 680.367 409.199C681.657 405.789 682.787 401.359 680.057 397.349C678.327 394.809 675.637 393.259 672.477 392.989C668.807 392.669 664.907 394.139 662.297 396.829C659.527 399.669 660.327 402.169 661.487 403.769C661.807 404.209 662.257 404.559 662.777 404.759C665.947 405.979 667.767 404.649 668.737 403.329C669.717 401.999 670.817 401.449 671.837 401.779C672.577 402.029 673.157 402.759 673.157 403.439C673.157 404.219 672.387 404.619 671.747 404.819C670.267 405.279 669.327 405.619 668.867 405.829C668.307 406.089 667.837 406.489 667.497 407.009C666.247 408.939 666.327 410.879 667.737 412.619C668.077 413.039 668.517 413.349 669.027 413.509L671.947 414.459C672.007 414.479 672.057 414.519 672.117 414.579C672.687 415.249 672.947 415.819 672.887 416.289C672.837 416.719 672.487 417.169 671.867 417.609C669.917 418.989 669.067 418.209 667.467 416.459C666.037 414.899 664.077 412.759 660.857 414.679C659.747 415.349 659.097 416.359 658.997 417.619C658.787 420.209 660.887 423.019 662.267 424.179L662.257 424.199Z" fill="black"/>
<path d="M567.257 453.599C566.457 452.859 565.367 452.559 564.027 452.699C563.537 452.759 563.057 452.92 562.607 453.19C557.627 456.32 554.887 459.05 554.477 461.31C554.307 462.22 554.507 463.07 555.047 463.78C556.897 466.22 558.747 465.539 560.297 464.739V476.38C560.297 478.45 561.977 480.13 564.047 480.13H564.497C566.717 480.13 568.517 478.32 568.517 476.06C568.447 468.72 568.497 462.65 568.647 458.02C568.707 455.98 568.247 454.489 567.257 453.579V453.599Z" fill="black"/>
<path d="M616.847 464.109C617.867 464.219 618.887 463.779 619.497 462.969C619.657 462.759 619.817 462.549 619.967 462.339C620.947 460.999 621.596 460.189 622.356 460.329C622.846 460.419 623.196 460.899 623.146 461.429C622.946 463.599 620.277 466.349 617.457 469.249C616.647 470.089 615.816 470.939 615.006 471.809C613.676 473.249 612.717 475.699 613.477 477.609C613.787 478.399 614.676 479.739 617.106 479.899C618.496 479.989 620.257 480.039 622.367 480.039C624.117 480.039 626.117 480.009 628.347 479.939C630.107 479.889 631.477 478.479 631.477 476.719V476.189C631.477 474.389 630.017 472.929 628.217 472.929H624.557C624.767 472.689 624.997 472.439 625.227 472.189C627.157 470.049 629.557 467.389 630.707 464.139C632.117 460.129 631.076 456.439 627.916 454.249C624.176 451.669 618.727 451.939 615.227 454.889C613.297 456.509 612.347 459.179 612.967 461.219C613.247 462.159 614.136 463.789 616.856 464.109H616.847Z" fill="black"/>
<path d="M681.006 472.639C680.296 472.499 679.906 472.129 679.306 471.569C679.036 471.309 678.746 471.05 678.416 470.79C677.236 469.84 675.556 469.809 674.346 470.699C671.806 472.549 671.927 474.47 672.467 475.75C673.887 479.1 678.017 480.339 681.447 480.339C682.367 480.339 683.237 480.249 683.987 480.089C688.977 479.029 691.466 475.749 691.186 470.599C691.136 469.769 690.856 468.929 690.586 468.129C690.346 467.419 690.126 466.749 690.076 466.159C690.056 465.909 690.096 465.659 690.186 465.439C691.826 461.569 691.506 458.079 689.296 455.619C686.876 452.939 682.336 451.86 678.496 453.04C675.456 453.98 673.486 456.139 673.096 458.969C672.876 460.579 673.586 462.049 674.876 462.629C677.806 463.959 679.156 462.54 680.146 461.5C680.756 460.86 681.156 460.459 681.786 460.419C682.736 460.349 683.106 460.729 683.326 461.119C683.426 461.289 683.446 461.499 683.376 461.699C683.306 461.929 683.137 462.129 682.907 462.259C682.487 462.499 681.956 462.689 681.396 462.899C680.106 463.369 678.646 463.899 678.106 465.259C677.736 466.179 677.886 467.269 678.556 468.589C678.846 469.159 679.347 469.6 679.947 469.81L682.796 470.839C682.936 470.889 683.046 470.989 683.106 471.119C683.166 471.249 683.176 471.399 683.086 471.619C682.566 472.519 681.936 472.819 680.996 472.629L681.006 472.639Z" fill="black"/>
<path d="M390.716 584.79C390.656 584.82 390.596 584.82 390.546 584.79H390.536C390.096 584.57 389.676 584.359 389.276 584.159C386.916 582.989 384.876 581.979 382.136 581.459C373.026 579.729 365.166 581.93 358.756 588C357.026 589.64 355.416 591.99 353.856 594.27L353.046 595.449C352.946 595.599 352.806 595.71 352.636 595.77C346.636 598.02 342.716 601.049 340.306 605.279C334.886 614.799 334.766 623.889 339.956 632.299C344.706 639.999 352.756 643.899 361.486 642.719C363.956 642.389 366.566 641.219 369.076 640.089L369.636 639.839C369.716 639.799 369.816 639.799 369.886 639.819C369.976 639.849 370.426 640.019 372.486 641.099C375.096 642.459 377.996 643.129 380.906 643.129C384.586 643.129 388.276 642.059 391.386 639.939C393.786 638.299 394.866 635.329 394.066 632.529L394.036 632.439C393.316 629.969 390.736 628.54 388.266 629.25C387.956 629.34 387.666 629.459 387.386 629.609C383.256 631.789 382.316 632.009 382.126 632.029C378.846 632.249 377.386 631.329 374.466 629.489C374.086 629.249 373.676 628.99 373.246 628.73C371.826 627.86 370.116 627.689 368.546 628.259C367.146 628.779 365.726 629.459 364.326 630.299C360.996 632.279 357.196 632.53 353.886 630.98C350.426 629.36 347.986 626.049 347.346 622.109C346.486 616.739 348.416 609.81 353.136 607.5C353.396 607.38 353.666 607.309 353.946 607.279L357.846 606.939C359.386 606.819 360.706 605.859 361.286 604.429C364.346 596.949 367.446 592.749 375.006 591.989C380.196 591.469 384.416 592.999 387.916 596.659C389.246 598.059 391.396 598.209 392.906 597.009L397.116 593.699C397.116 593.699 397.206 593.629 397.266 593.609C402.846 591.179 407.946 591.369 412.856 594.199C414.726 595.279 416.256 596.87 417.866 598.56C418.476 599.19 419.096 599.839 419.756 600.489C420.886 601.599 422.456 602.039 424.046 601.679C425.796 601.289 427.316 599.989 427.916 598.359C429.066 595.229 425.896 590.879 424.606 589.649C414.536 579.989 403.136 578.359 390.726 584.799L390.716 584.79Z" fill="black"/>
<path d="M383.856 670.899L345.736 670.829C342.576 670.829 340.006 673.4 339.996 676.56V676.799C339.996 679.969 342.556 682.539 345.726 682.549L383.846 682.619H383.856C385.386 682.619 386.826 682.029 387.906 680.949C388.996 679.869 389.596 678.429 389.596 676.889V676.649C389.596 675.119 389.006 673.669 387.926 672.589C386.846 671.499 385.406 670.899 383.866 670.899H383.856Z" fill="black"/>
<path d="M646.396 586.979C643.526 586.469 640.686 585.959 637.876 585.449C637.356 585.359 636.896 585.059 636.596 584.619C635.716 583.329 634.456 580.759 632.856 576.969C631.356 573.429 628.776 571.219 625.956 571.079C623.256 570.939 620.686 572.709 618.916 575.929C617.506 578.509 616.056 581.349 614.606 584.369C614.286 585.039 613.656 585.529 612.926 585.669C612.326 585.779 610.006 586.159 606.036 586.789C602.216 587.399 599.936 589.359 599.266 592.599C598.296 597.279 601.796 600.859 604.886 604.009C605.376 604.509 605.866 605.009 606.336 605.509C607.086 606.299 607.476 607.389 607.396 608.479C607.196 611.369 606.946 613.929 606.666 616.079C606.306 618.759 606.406 620.619 606.956 621.759C607.816 623.519 609.266 624.819 611.036 625.419C611.746 625.659 612.496 625.779 613.246 625.779C614.396 625.779 615.566 625.499 616.676 624.939C620.206 623.179 623.026 621.789 625.056 620.829C625.576 620.579 626.186 620.609 626.686 620.889C630.066 622.849 632.736 624.269 634.606 625.089C637.046 626.159 639.706 625.899 641.726 624.399C643.606 622.999 644.566 620.729 644.276 618.329C644.176 617.469 644.026 616.519 643.876 615.539C643.346 612.099 642.676 607.809 644.066 606.289C646.526 603.589 648.656 601.079 650.376 598.839C652.136 596.569 652.636 593.619 651.686 591.159C650.836 588.949 648.906 587.429 646.396 586.979ZM632.216 611.099C630.116 609.839 627.396 608.279 625.376 608.279H625.356C623.336 608.279 620.616 609.889 618.526 611.169C619.236 607.689 619.996 603.279 618.056 600.919C617.316 600.009 615.966 598.639 613.946 596.739C614.216 596.719 614.486 596.699 614.756 596.679C617.996 596.429 621.046 596.189 622.656 593.579C623.506 592.209 624.386 590.359 625.266 588.049C626.166 590.339 627.066 592.189 627.926 593.549C629.556 596.149 632.626 596.359 635.876 596.579C636.136 596.599 636.406 596.619 636.666 596.639C634.656 598.559 633.326 599.949 632.596 600.849C630.676 603.229 631.476 607.639 632.216 611.109V611.099Z" fill="black"/>
<path d="M622.707 642.17C621.687 641.15 620.327 640.59 618.887 640.59H618.876L603.577 640.62C602.137 640.62 600.776 641.19 599.756 642.21C598.736 643.23 598.177 644.59 598.177 646.04V646.78C598.177 648.23 598.747 649.58 599.767 650.6C600.787 651.62 602.146 652.18 603.586 652.18H603.597L618.896 652.15C620.346 652.15 621.697 651.58 622.717 650.56C623.737 649.54 624.296 648.18 624.296 646.73V645.99C624.296 644.55 623.727 643.19 622.707 642.17Z" fill="black"/>
<path d="M165.006 681.54C165.596 681.56 166.176 681.57 166.756 681.57C178.816 681.57 190.266 676.989 199.146 668.579C208.456 659.759 213.846 647.779 214.326 634.849C214.806 621.919 210.306 609.569 201.666 600.099C193.016 590.619 181.266 585.14 168.556 584.67C155.866 584.21 143.726 588.81 134.406 597.63C125.096 606.45 119.706 618.43 119.226 631.36C118.746 644.29 123.246 656.64 131.886 666.11C140.536 675.59 152.286 681.07 164.996 681.54H165.006ZM130.516 631.389C131.456 611.509 147.576 595.96 166.826 595.96C167.386 595.96 167.946 595.97 168.516 596C188.506 596.94 203.976 614.35 203.016 634.81C202.056 655.27 185.006 671.139 165.016 670.199C145.026 669.259 129.556 651.849 130.516 631.389Z" fill="black"/>
<path d="M166.337 660.039C166.737 660.039 167.126 660.029 167.526 660.009C175.186 659.569 181.756 654.529 184.276 647.189C186.766 639.909 184.727 632.259 178.937 627.209C173.467 622.459 168.287 621.969 161.217 622.749V618.789H178.437C181.157 618.789 183.367 616.579 183.367 613.859V613.559C183.407 610.689 181.197 608.329 178.337 608.169C170.757 607.749 163.817 607.769 157.707 608.219C153.667 608.519 151.307 610.679 150.887 614.469C150.847 614.789 150.737 615.779 150.697 630.159C150.697 632.829 151.447 634.859 152.877 636.019C153.737 636.709 155.277 637.429 157.767 636.889C158.277 636.769 158.757 636.519 159.167 636.159C160.507 634.929 161.857 633.949 163.207 633.249C167.087 631.219 172.107 633.759 174.167 637.309C176.597 641.489 174.497 646.009 171.167 648.309C168.247 650.339 163.517 651.089 159.837 646.569C159.617 646.299 159.367 645.789 159.107 645.239C158.557 644.079 157.867 642.649 156.627 641.959C155.267 641.209 153.797 641.169 152.477 641.869C150.977 642.659 149.947 644.249 149.787 646.029C149.477 649.419 150.547 652.499 152.897 654.929C155.967 658.109 161.147 660.059 166.347 660.059L166.337 660.039Z" fill="black"/>
<path d="M850.106 656.809C850.776 657.029 851.506 657.259 852.286 657.499C857.356 659.079 864.306 661.239 864.856 665.679C865.126 667.879 862.886 669.869 861.906 670.619C856.196 674.999 851.186 673.869 844.646 666.719C843.226 665.169 841.096 664.489 839.226 664.999C837.506 665.469 836.276 666.809 835.876 668.689C834.166 676.619 844.636 681.569 849.676 683.959C849.846 684.039 849.956 684.199 849.966 684.389L850.006 685.049C850.106 686.639 850.216 688.439 851.086 689.719C852.056 691.149 853.646 691.969 855.356 691.969C855.596 691.969 855.836 691.949 856.076 691.919C858.046 691.649 859.676 690.319 860.306 688.449C860.646 687.449 860.896 686.199 861.056 684.729C861.106 684.219 861.436 683.779 861.916 683.579C867.136 681.459 873.356 677.149 875.126 671.429C877.696 663.089 873.516 654.599 864.966 650.779C862.376 649.619 858.646 648.259 853.866 646.739C851.706 646.049 846.796 643.989 847.846 639.679C848.196 638.279 849.126 637.089 850.706 636.069C853.976 633.939 857.086 633.849 860.226 635.799C860.546 635.999 860.836 636.249 861.076 636.549C861.756 637.389 863.076 638.839 865.116 640.999C866.316 642.269 867.586 642.919 868.886 642.929H868.926C870.246 642.929 871.556 642.279 872.816 641.009C873.996 639.819 874.376 638.289 873.926 636.569C872.536 631.279 868.316 626.759 862.026 623.839C861.536 623.609 861.216 623.129 861.186 622.589C861.096 620.839 860.746 619.329 860.156 618.109C859.526 616.819 858.146 615.709 856.726 615.369C855.556 615.089 854.396 615.309 853.476 616.009C850.626 618.169 850.396 620.229 850.086 623.069C850.046 623.439 849.836 623.769 849.516 623.969L849.336 624.079C842.986 627.999 836.996 631.699 836.776 640.429C836.516 650.939 843.766 654.709 850.106 656.819V656.809Z" fill="black"/>
<path d="M449.097 633.389C447.817 632.939 446.497 633.079 445.267 633.799C441.187 636.189 442.647 639.959 443.707 642.719C444.067 643.659 444.416 644.549 444.566 645.349C445.306 649.119 444.726 652.629 442.836 655.779C440.956 658.929 438.147 661.109 434.467 662.239C433.687 662.479 432.737 662.599 431.737 662.729C428.807 663.099 424.787 663.609 424.617 668.329C424.567 669.759 425.066 670.999 426.066 671.909C427.466 673.179 429.587 673.629 431.517 673.629C432.077 673.629 432.626 673.589 433.126 673.519C441.356 672.419 448.106 668.099 452.146 661.349C456.186 654.609 456.786 646.619 453.856 638.829C453.056 636.729 451.386 634.189 449.086 633.379L449.097 633.389Z" fill="black"/>
<path d="M117.697 818.199H113.237V803.009C113.237 801.979 112.847 801 112.117 800.27C111.387 799.54 110.417 799.129 109.387 799.119C109.317 799.119 109.246 799.119 109.186 799.119H108.907C106.697 799.249 104.947 801.08 104.927 803.31C104.897 811.89 104.926 818.19 104.996 822.06C105.036 824.47 106.247 825.959 108.407 826.239C109.667 826.399 111.507 826.479 113.987 826.479C115.077 826.479 116.287 826.459 117.637 826.429C119.827 826.379 121.606 824.559 121.606 822.379V822.079C121.606 819.929 119.857 818.179 117.697 818.179V818.199Z" fill="black"/>
<path d="M132.787 799.049H131.506C128.986 799.049 126.567 800.019 124.767 801.809C122.967 803.599 121.967 805.989 121.957 808.529L121.927 816.989C121.927 819.529 122.897 821.929 124.687 823.729C126.477 825.529 128.867 826.529 131.407 826.539H132.687C132.687 826.539 132.707 826.539 132.717 826.539C137.947 826.539 142.217 822.289 142.237 817.049L142.267 808.589C142.267 806.049 141.296 803.649 139.506 801.849C137.716 800.049 135.327 799.049 132.787 799.039V799.049ZM134.057 816.419C134.057 817.389 133.286 818.189 132.316 818.199H132.017C132.017 818.199 132.007 818.199 131.997 818.199C131.037 818.199 130.247 817.419 130.237 816.459L130.167 809.319C130.167 808.849 130.337 808.409 130.667 808.069C130.997 807.729 131.437 807.549 131.907 807.539H132.207C132.207 807.539 132.217 807.539 132.227 807.539C132.687 807.539 133.127 807.719 133.457 808.039C133.797 808.369 133.977 808.809 133.987 809.279L134.057 816.419Z" fill="black"/>
<path d="M156.067 799.339C155.317 799.259 153.757 799.209 151.277 799.199C148.797 799.199 147.227 799.23 146.477 799.31C144.917 799.48 143.647 800.619 143.317 802.149C142.987 803.639 143.147 804.879 143.797 805.819C144.427 806.749 145.497 807.339 146.967 807.589C147.027 813.649 147.047 818.26 147.017 821.29C146.997 823.22 147.417 824.6 148.307 825.5C149.017 826.22 149.987 826.589 151.177 826.589H151.197C152.377 826.589 153.337 826.23 154.047 825.52C154.947 824.62 155.377 823.249 155.367 821.319C155.367 818.289 155.417 813.679 155.517 807.629C156.997 807.389 158.067 806.799 158.707 805.879C159.357 804.939 159.527 803.709 159.207 802.219C158.887 800.679 157.627 799.529 156.057 799.349L156.067 799.339Z" fill="black"/>
<path d="M190.826 818.199L186.356 817.84C186.266 817.84 186.216 817.79 186.186 817.75C186.156 817.71 186.116 817.65 186.126 817.56C186.126 817.44 186.216 817.339 186.326 817.319C186.636 817.249 186.986 817.2 187.356 817.15C189.026 816.93 191.826 816.57 191.826 813.21C191.826 808.9 187.716 808.849 186.146 808.799L186.246 807.54L185.246 807.46L186.276 807.509H190.836C192.346 807.509 193.637 806.49 193.987 805.02C194.407 803.23 194.226 801.809 193.456 800.799C192.696 799.799 191.396 799.259 189.606 799.199C185.816 799.069 183.196 799.15 181.596 799.46C179.366 799.88 178.136 801.51 178.136 804.04C178.136 812.16 178.116 817.049 178.066 818.579C177.986 821.029 178.156 822.749 178.566 823.849C179.146 825.399 180.656 826.449 182.306 826.449H190.256C190.256 826.449 190.256 826.46 190.266 826.46C192.296 826.46 194.006 824.879 194.166 822.869L194.226 822.179C194.386 820.149 192.856 818.37 190.826 818.21V818.199Z" fill="black"/>
<path d="M213.036 813.339C213.386 812.469 213.736 811.559 213.936 810.479C214.726 806.189 213.506 802.879 210.306 800.649C207.606 798.769 203.886 798.979 200.896 799.139L200.366 799.169C197.746 799.319 196.277 800.779 196.217 803.289C196.087 809.099 196.097 815.719 196.237 822.959C196.257 823.919 196.646 824.819 197.336 825.489C198.026 826.159 198.936 826.519 199.956 826.489L200.626 826.459C202.806 826.379 204.516 824.609 204.506 822.429V819.969L206.056 824.129C206.616 825.619 208.036 826.549 209.556 826.549C209.986 826.549 210.436 826.469 210.866 826.309L211.456 826.079C213.476 825.329 214.536 823.129 213.866 821.089L212.326 816.329C212.256 816.109 212.236 815.859 212.286 815.619C212.436 814.829 212.726 814.099 213.026 813.339H213.036ZM205.916 808.799V808.999C205.916 809.419 205.356 809.869 204.536 809.919L204.586 807.809C204.966 807.849 205.326 807.979 205.586 808.189C205.716 808.289 205.927 808.509 205.927 808.799H205.916Z" fill="black"/>
<path d="M229.686 799.25C228.306 798.68 226.646 799.179 225.556 800.489C225.146 800.989 224.656 801.699 224.076 802.649C223.496 801.689 223.016 800.979 222.596 800.489C221.506 799.179 219.846 798.68 218.466 799.25C217.106 799.81 216.226 800.629 215.846 801.679C215.446 802.779 215.626 804.079 216.376 805.549C217.496 807.679 218.466 809.329 219.276 810.429C219.416 810.619 219.506 810.839 219.556 811.069C220.056 813.789 219.996 816.899 219.946 819.639C219.926 820.569 219.916 821.46 219.916 822.29C219.946 824.79 221.696 826.599 224.086 826.599C226.476 826.599 228.246 824.79 228.256 822.29C228.256 821.46 228.246 820.569 228.226 819.639C228.176 816.899 228.116 813.789 228.616 811.079C228.656 810.849 228.756 810.629 228.896 810.439C229.706 809.329 230.676 807.689 231.786 805.549C232.536 804.089 232.716 802.789 232.316 801.689C231.936 800.639 231.046 799.819 229.686 799.259V799.25Z" fill="black"/>
<path d="M173.296 799.299C172.546 799.219 170.976 799.169 168.496 799.149C166.026 799.149 164.447 799.18 163.697 799.27C162.137 799.44 160.856 800.579 160.526 802.109C160.206 803.599 160.366 804.83 161.006 805.77C161.636 806.7 162.696 807.289 164.186 807.549C164.236 813.609 164.256 818.219 164.226 821.259C164.226 822.729 164.456 823.869 164.956 824.729C165.436 825.559 166.427 826.55 168.387 826.56H168.407C169.587 826.56 170.546 826.199 171.256 825.489C172.146 824.599 172.586 823.22 172.586 821.29C172.586 818.28 172.637 813.669 172.737 807.589C174.217 807.349 175.296 806.759 175.936 805.829C176.586 804.889 176.756 803.659 176.436 802.169C176.116 800.639 174.846 799.479 173.286 799.299H173.296Z" fill="black"/>
<path d="M143.377 901.19C143.857 901.68 144.087 902.34 143.997 903.02C143.077 910.1 142.487 915.03 142.267 917.7C141.997 921 143.147 923.77 145.527 925.48C148.137 927.36 151.877 927.62 155.307 926.15C156.197 925.76 159.607 924 165.737 920.78C166.887 920.18 167.767 920.02 168.367 920.31C175.887 923.97 180.107 925.99 181.287 926.47C182.387 926.92 183.497 927.14 184.577 927.14C186.277 927.14 187.887 926.59 189.257 925.51C191.687 923.59 192.877 920.38 192.377 917.14C191.467 911.25 190.857 906.71 190.567 903.63C190.527 903.1 190.707 902.56 191.067 902.17C194.367 898.62 197.437 895.09 200.197 891.67C202.387 888.96 203.007 885.58 201.877 882.63C200.817 879.86 198.377 877.98 195.177 877.46C189.317 876.51 184.877 875.75 181.987 875.19C181.117 875.02 180.367 874.48 179.947 873.7C179.527 872.92 177.637 869.05 174.337 862.21C172.747 858.91 170.307 857.11 167.057 856.85C163.517 856.56 160.287 858.98 158.147 863.49C157.857 864.11 156.127 867.49 153.007 873.53C152.527 874.46 151.897 874.99 151.067 875.16C147.367 875.9 143.307 876.69 138.997 877.51C135.497 878.18 132.977 880.26 132.067 883.22C131.117 886.32 132.167 889.88 134.807 892.51C135.037 892.74 137.887 895.63 143.377 901.21V901.19ZM179.187 903.39C179.757 907.72 180.257 911.22 180.687 913.8C178.927 912.94 175.527 911.27 170.537 908.8C168.127 907.6 165.527 907.75 162.787 909.25C158.027 911.84 154.887 913.52 153.437 914.28C153.817 912.17 154.407 908.1 155.207 901.91C155.607 898.87 154.517 896.19 151.987 893.93C150.137 892.28 147.787 890.05 144.987 887.32C150.097 886.74 153.587 886.32 155.357 886.06C159.767 885.42 160.897 883.11 162.617 879.61L163.047 878.73C164.737 875.33 165.937 872.93 166.637 871.54C167.497 873.3 169.187 876.73 171.697 881.81C172.927 884.29 175.227 885.77 178.557 886.19C182.517 886.7 185.857 887.15 188.487 887.53C187.707 888.52 186.047 890.32 182.567 893.62C179.667 896.36 178.657 899.28 179.197 903.39H179.187Z" fill="black"/>
<path d="M668.336 871.75C668.336 869.99 667.466 868.389 665.986 867.469C664.436 866.509 662.506 866.43 660.816 867.27C659.966 867.7 659.066 868.34 658.136 869.19C655.196 871.88 651.256 875.239 646.436 879.179C644.506 880.759 644.146 883.57 645.626 885.56L645.866 885.9C646.546 886.86 647.546 887.499 648.706 887.699C649.866 887.899 651.026 887.64 651.986 886.96C652.086 886.89 652.176 886.819 652.266 886.739L657.166 882.65V912.839C657.166 915.669 659.476 917.98 662.316 917.98H662.876C665.916 917.98 668.396 915.499 668.396 912.449C668.326 896.319 668.306 882.63 668.336 871.75Z" fill="black"/>
<path d="M601.686 909.08H588.137C593.317 903.18 597.217 898.4 599.737 894.86C601.987 891.7 603.606 888.74 604.546 886.07C605.896 882.24 605.577 878.13 603.637 874.5C601.527 870.54 597.776 867.62 593.356 866.47C588.556 865.23 584.027 866.01 579.907 868.79C576.727 870.94 572.426 875.83 573.626 880.49C574.186 882.69 576.416 884.57 578.816 884.86C580.786 885.1 582.457 884.24 583.387 882.5C584.387 880.62 585.156 879.21 585.666 878.31C585.746 878.17 585.867 878.04 585.997 877.95C587.957 876.6 589.977 876.61 592.137 878C593.127 878.63 593.687 879.44 593.847 880.48C594.457 884.31 589.666 890.18 588.086 892.11C587.886 892.35 583.566 897.28 575.256 906.75C573.036 909.28 571.246 913.31 572.566 916.18C573.196 917.55 574.716 919.15 578.666 919.13C578.896 919.13 586.656 919.13 601.936 919.14C604.516 919.14 606.606 917.05 606.606 914.48V914.03C606.606 911.31 604.386 909.09 601.666 909.09L601.686 909.08Z" fill="black"/>
</svg>
